# Blender v3.2.1 OBJ File: ''
# www.blender.org
mtllib Hebeloben-2.mtl
o Drehmaschine_-_Hebel_oben-2_Drehmaschine_-_Hebel_oben-2.002
v 0.006132 0.005367 -0.007473
v 0.001710 0.001020 -0.003817
v 0.006115 0.005160 -0.007745
v 0.001670 0.000729 -0.004087
v 0.001490 0.000614 -0.004424
v 0.005894 0.005073 -0.008117
v 0.001232 0.000746 -0.004696
v 0.005612 0.005186 -0.008325
v 0.005361 0.005369 -0.008392
v 0.000989 0.000961 -0.004795
v 0.000731 0.001257 -0.004662
v 0.005159 0.005689 -0.008273
v 0.005108 0.005976 -0.007986
v 0.000649 0.001527 -0.004326
v 0.005297 0.006131 -0.007539
v 0.000870 0.001691 -0.003943
v 0.001275 0.001612 -0.003707
v 0.005596 0.006030 -0.007320
v 0.005952 0.005748 -0.007245
v 0.001572 0.001344 -0.003687
v 0.002290 0.001048 -0.002979
v 0.000996 0.000775 -0.004986
v 0.001222 0.000338 -0.004986
v 0.000490 0.001161 -0.004986
v 0.001273 0.002158 -0.002985
v 0.000504 0.002449 -0.002997
v 0.001873 0.001674 -0.002981
v -0.000861 0.000887 -0.004986
v -0.001896 0.001638 -0.002990
v -0.001101 0.002236 -0.002987
v -0.000335 0.001210 -0.004986
v -0.000332 0.002474 -0.002987
v -0.001188 0.000395 -0.004986
v -0.002378 0.000742 -0.002987
v -0.002493 -0.000054 -0.002987
v -0.001190 -0.000408 -0.004986
v -0.002350 -0.000846 -0.002987
v -0.001963 -0.001552 -0.002987
v -0.000783 -0.000986 -0.004986
v -0.001248 -0.002185 -0.002999
v -0.000142 -0.001270 -0.004986
v -0.000436 -0.002469 -0.002986
v 0.000160 -0.002514 -0.002987
v 0.000738 -0.001067 -0.004987
v 0.001156 -0.002266 -0.002981
v 0.001921 -0.001639 -0.002987
v 0.001246 -0.000317 -0.004986
v 0.002432 -0.000751 -0.002981
v 0.002510 0.000236 -0.002987
v -0.000290 -0.000101 0.000614
v -0.000057 -0.000310 0.000614
v 0.000222 -0.000244 0.000614
v -0.000020 0.000297 0.000614
v -0.000224 0.000180 0.000614
v 0.000227 0.000214 0.000614
v 0.000320 -0.000002 0.000614
v 0.000319 -0.000101 0.000014
v 0.000239 0.000202 0.000014
v 0.000022 0.000296 0.000014
v -0.000274 0.000141 0.000014
v -0.000193 -0.000244 0.000014
v 0.000087 -0.000310 0.000014
v -0.001315 0.002130 0.000014
v -0.001890 0.001610 0.000014
v -0.002342 0.000883 0.000014
v -0.002491 -0.000096 0.000014
v -0.002262 -0.001091 0.000014
v -0.001659 -0.001877 0.000014
v -0.000783 -0.002401 0.000014
v 0.002505 0.000278 0.000014
v 0.002286 0.001052 0.000014
v 0.001833 0.001716 0.000014
v 0.001193 0.002203 0.000014
v 0.000431 0.002462 0.000014
v -0.000373 0.002467 0.000014
v 0.000202 -0.002510 0.000014
v 0.001187 -0.002242 0.000014
v 0.001948 -0.001607 0.000014
v 0.002436 -0.000711 0.000014
v 0.007231 0.007532 -0.009562
v 0.007402 0.007715 -0.009137
v 0.007605 0.007431 -0.009284
v 0.006138 0.005806 -0.007127
v 0.004995 0.006198 -0.008046
v 0.005046 0.005820 -0.008653
v 0.007890 0.007295 -0.008896
v 0.007830 0.006900 -0.009416
v 0.007481 0.006990 -0.009758
v 0.007017 0.007312 -0.009863
v 0.006758 0.007866 -0.009386
v 0.006982 0.008006 -0.008924
v 0.007536 0.007739 -0.008661
v 0.006525 0.007639 -0.009702
v 0.007100 0.008001 -0.008646
v 0.007819 0.007435 -0.008312
v 0.008084 0.006748 -0.008899
v 0.007133 0.006720 -0.010033
v 0.006560 0.007054 -0.010079
v 0.007318 0.007792 -0.007972
v 0.008062 0.006890 -0.008216
v 0.007947 0.006148 -0.009269
v 0.007587 0.006289 -0.009749
v 0.006154 0.007800 -0.009440
v 0.006325 0.008058 -0.008901
v 0.006588 0.008106 -0.008438
v 0.006758 0.008023 -0.008028
v 0.008099 0.006139 -0.008720
v 0.007191 0.006155 -0.009996
v 0.005992 0.007129 -0.009957
v 0.007712 0.007285 -0.007779
v 0.008118 0.006444 -0.008324
v 0.006469 0.006638 -0.010166
v 0.005750 0.007606 -0.009450
v 0.005666 0.007847 -0.008851
v 0.005964 0.008020 -0.008483
v 0.007565 0.005624 -0.009445
v 0.006663 0.006078 -0.010107
v 0.006040 0.006334 -0.010092
v 0.005478 0.007146 -0.009621
v 0.006035 0.007912 -0.007934
v 0.006850 0.007607 -0.007424
v 0.007339 0.007130 -0.007289
v 0.007870 0.006462 -0.007637
v 0.007974 0.005899 -0.008154
v 0.007817 0.005531 -0.008722
v 0.006918 0.005493 -0.009772
v 0.005610 0.006669 -0.009872
v 0.005233 0.007356 -0.009054
v 0.006270 0.007606 -0.007398
v 0.007118 0.005243 -0.009396
v 0.006391 0.005724 -0.009973
v 0.005785 0.005991 -0.009914
v 0.005520 0.007723 -0.008250
v 0.006734 0.007204 -0.007101
v 0.007492 0.006374 -0.007265
v 0.007619 0.005746 -0.007607
v 0.007187 0.005062 -0.008966
v 0.005272 0.006160 -0.009547
v 0.005123 0.006803 -0.009317
v 0.005176 0.007394 -0.008385
v 0.005471 0.007429 -0.007731
v 0.005812 0.007594 -0.007610
v 0.007036 0.006422 -0.007011
v 0.007522 0.005332 -0.008018
v 0.007463 0.005188 -0.008535
v 0.006241 0.005306 -0.009618
v 0.006557 0.005066 -0.009308
v 0.005685 0.005588 -0.009609
v 0.005012 0.006306 -0.009113
v 0.004905 0.006601 -0.008703
v 0.004942 0.006844 -0.008346
v 0.005602 0.007018 -0.007314
v 0.005987 0.006914 -0.007076
v 0.006508 0.006672 -0.006939
v 0.007003 0.005792 -0.007164
v 0.006952 0.004935 -0.008408
v 0.005169 0.006931 -0.007774
v 0.007074 0.005415 -0.007490
v 0.006993 0.005118 -0.007849
v 0.006439 0.004902 -0.008837
v 0.005841 0.005180 -0.009232
v 0.005203 0.005693 -0.009068
v 0.006366 0.006218 -0.006959
v 0.005771 0.006443 -0.007123
v 0.006640 0.005246 -0.007527
v 0.006398 0.004899 -0.008262
v 0.005772 0.005079 -0.008818
vn 0.7871 -0.5148 0.3398
vn 0.7910 -0.4716 0.3898
vn 0.6172 -0.7643 -0.1869
vn 0.6606 -0.7442 -0.0988
vn 0.2541 -0.7533 -0.6066
vn 0.1933 -0.7281 -0.6576
vn -0.1592 -0.5246 -0.8364
vn -0.1394 -0.5407 -0.8296
vn -0.5579 -0.1171 -0.8216
vn -0.5865 -0.0715 -0.8068
vn -0.7804 0.3674 -0.5060
vn -0.7827 0.3772 -0.4951
vn -0.6889 0.7237 0.0404
vn -0.6750 0.7340 0.0752
vn -0.2249 0.7391 0.6350
vn -0.2239 0.7386 0.6358
vn -0.2223 0.7379 0.6372
vn -0.2212 0.7375 0.6381
vn 0.2099 0.4876 0.8474
vn 0.3009 0.4003 0.8656
vn 0.6484 -0.0303 0.7607
vn 0.6909 -0.1008 0.7159
vn 0.7521 0.3878 -0.5328
vn 0.7527 0.3867 -0.5328
vn 0.7511 0.3899 -0.5328
vn 0.7506 0.3908 -0.5328
vn 0.7356 0.3804 -0.5606
vn 0.7578 0.3655 -0.5405
vn 0.6779 0.5401 -0.4987
vn 0.4851 0.6726 -0.5588
vn 0.4860 0.6358 -0.5996
vn 0.3923 0.7616 -0.5158
vn 0.4530 0.7113 -0.5374
vn 0.3097 0.7969 -0.5187
vn 0.3087 0.7970 -0.5191
vn 0.3154 0.7954 -0.5176
vn 0.3102 0.7966 -0.5189
vn 0.5439 0.6701 -0.5052
vn 0.7159 0.4753 -0.5114
vn 0.6861 0.5019 -0.5267
vn 0.5849 0.6103 -0.5342
vn -0.5111 0.6829 -0.5219
vn -0.4412 0.7184 -0.5378
vn -0.2531 0.8179 -0.5168
vn 0.0189 0.8450 -0.5344
vn 0.0498 0.8382 -0.5431
vn 0.3194 0.7945 -0.5164
vn -0.7012 0.4666 -0.5391
vn -0.7540 0.4034 -0.5185
vn -0.8434 0.1219 -0.5232
vn -0.8378 0.0024 -0.5460
vn -0.8403 -0.1519 -0.5204
vn -0.7474 -0.4094 -0.5232
vn -0.6861 -0.4848 -0.5424
vn -0.5722 -0.6359 -0.5179
vn -0.3402 -0.7675 -0.5433
vn -0.2733 -0.8067 -0.5239
vn -0.0642 -0.8517 -0.5201
vn 0.1887 -0.8207 -0.5393
vn 0.2070 -0.8202 -0.5333
vn 0.5423 -0.6666 -0.5114
vn 0.6942 -0.4701 -0.5451
vn 0.7382 -0.4208 -0.5272
vn 0.8519 -0.0709 -0.5189
vn 0.8409 0.0308 -0.5403
vn 0.8236 0.2289 -0.5190
vn 0.7859 0.3180 -0.5304
vn 0.0000 0.0000 1.0000
vn 0.9254 -0.3742 0.0599
vn 0.9657 0.2558 -0.0434
vn 0.9190 0.3941 0.0101
vn 0.3947 0.9188 -0.0101
vn 0.3173 0.9481 0.0203
vn -0.4623 0.8861 -0.0350
vn -0.4963 0.8680 -0.0159
vn -0.9718 0.2266 0.0656
vn -0.9728 -0.2050 -0.1079
vn -0.6681 -0.7409 0.0693
vn -0.2302 -0.9716 -0.0552
vn 0.2302 -0.9716 0.0552
vn 0.6681 -0.7409 -0.0692
vn -0.0002 0.0004 1.0000
vn -0.0007 -0.0002 1.0000
vn -0.8488 0.5287 0.0069
vn -0.8809 0.4732 -0.0119
vn -0.9895 0.1446 0.0044
vn -0.9897 0.1430 0.0052
vn -0.9889 0.1487 0.0031
vn -0.9887 0.1502 0.0026
vn -0.9840 -0.1779 -0.0020
vn -0.9745 -0.2241 0.0098
vn -0.8768 -0.4806 -0.0135
vn -0.7933 -0.6086 0.0145
vn -0.6629 -0.7485 -0.0139
vn -0.5133 -0.8580 0.0177
vn -0.3299 -0.9439 -0.0168
vn -0.0744 -0.9971 0.0140
vn -0.1100 -0.9939 0.0029
vn 0.2416 -0.9704 -0.0021
vn 0.2633 -0.9647 0.0052
vn 0.6350 -0.7725 0.0004
vn 0.6337 -0.7736 -0.0002
vn 0.6389 -0.7693 0.0020
vn 0.6407 -0.7678 0.0024
vn 0.8667 -0.4988 -0.0025
vn 0.8782 -0.4783 0.0052
vn 0.9970 -0.0773 0.0004
vn 0.9969 -0.0791 -0.0002
vn 0.9974 -0.0722 0.0020
vn 0.9975 -0.0699 0.0026
vn 0.9643 0.2648 -0.0014
vn 0.9650 0.2623 -0.0021
vn 0.9628 0.2702 0.0001
vn 0.9621 0.2727 0.0008
vn 0.8307 0.5567 0.0009
vn 0.8320 0.5548 0.0002
vn 0.8276 0.5613 0.0023
vn 0.8261 0.5636 0.0031
vn 0.6283 0.7780 -0.0027
vn 0.6056 0.7958 0.0042
vn 0.3537 0.9354 -0.0046
vn 0.3221 0.9467 0.0036
vn 0.0293 0.9996 -0.0037
vn 0.0059 1.0000 0.0023
vn -0.2952 0.9554 -0.0020
vn -0.3371 0.9414 0.0093
vn -0.6005 0.7995 -0.0145
vn -0.6709 0.7415 0.0085
vn 0.0000 0.0001 -1.0000
vn 0.0000 0.0000 -1.0000
vn 0.0000 -0.0003 -1.0000
vn -0.0001 0.0004 -1.0000
vn -0.0000 0.0004 -1.0000
vn 0.0002 0.0003 -1.0000
vn -0.0002 -0.0012 -1.0000
vn -0.0004 -0.0018 -1.0000
vn 0.5549 0.6598 -0.5067
vn -0.2952 -0.5886 0.7526
vn -0.4331 -0.3252 0.8406
vn -0.8353 -0.3029 0.4589
vn -0.8902 -0.3920 0.2322
vn -0.9194 -0.3640 0.1489
vn -0.8343 -0.5480 0.0601
vn 0.7025 0.6514 -0.2867
vn 0.7907 0.4401 -0.4256
vn 0.6856 0.4350 -0.5836
vn 0.5992 0.5019 -0.6237
vn 0.5001 0.4893 -0.7144
vn 0.2372 0.6952 -0.6785
vn 0.2414 0.6956 -0.6767
vn 0.2376 0.6953 -0.6783
vn 0.3735 0.7883 -0.4890
vn 0.3592 0.8299 -0.4269
vn 0.4957 0.8490 -0.1831
vn 0.6980 0.6776 -0.2318
vn 0.2418 0.6956 -0.6765
vn 0.4996 0.8435 -0.1972
vn 0.7649 0.6411 -0.0618
vn 0.8847 0.3163 -0.3426
vn 0.4172 0.3258 -0.8484
vn 0.0878 0.5424 -0.8355
vn 0.5148 0.8516 0.0986
vn 0.6362 0.7579 0.1443
vn 0.9129 0.4081 0.0122
vn 0.9417 0.3342 -0.0391
vn 0.9024 0.0571 -0.4271
vn 0.8012 0.0080 -0.5983
vn 0.7101 0.0982 -0.6972
vn 0.5804 0.0768 -0.8107
vn 0.2547 0.3128 -0.9150
vn -0.0402 0.8264 -0.5617
vn -0.0620 0.9071 -0.4164
vn 0.0641 0.9456 -0.3190
vn 0.0736 0.9869 -0.1432
vn 0.1771 0.9825 -0.0585
vn 0.2376 0.9664 0.0982
vn 0.3612 0.9171 0.1686
vn 0.9621 -0.0549 -0.2673
vn 0.5295 -0.0012 -0.8483
vn -0.1090 0.5330 -0.8391
vn -0.2495 0.6285 -0.7367
vn 0.6835 0.6549 0.3225
vn 0.8534 0.4308 0.2935
vn 0.9924 0.1231 0.0069
vn 0.9985 0.0082 -0.0541
vn 0.2007 -0.0429 -0.9787
vn 0.1735 0.1656 -0.9708
vn -0.1730 0.2376 -0.9558
vn -0.2825 0.6277 -0.7254
vn -0.3900 0.8342 -0.3899
vn -0.3115 0.8913 -0.3295
vn -0.3132 0.9317 -0.1837
vn -0.1356 0.9904 -0.0250
vn 0.7142 -0.3107 -0.6272
vn 0.5783 -0.3549 -0.7346
vn 0.2098 -0.0290 -0.9773
vn -0.2658 0.1460 -0.9529
vn -0.4501 0.5331 -0.7164
vn -0.1493 0.9666 0.2081
vn -0.1153 0.9629 0.2439
vn 0.2820 0.8097 0.5147
vn 0.4594 0.6453 0.6104
vn 0.5140 0.6244 0.5882
vn 0.8528 0.2434 0.4620
vn 0.9403 0.0369 0.3383
vn 0.9300 -0.1409 0.3394
vn 0.9681 -0.2187 0.1220
vn 0.8790 -0.4062 -0.2497
vn 0.8094 -0.4756 -0.3444
vn 0.4731 -0.4519 -0.7562
vn 0.2440 -0.4007 -0.8831
vn -0.0768 -0.1294 -0.9886
vn -0.3661 0.1346 -0.9208
vn -0.5181 0.2819 -0.8075
vn -0.6546 0.5719 -0.4944
vn -0.6171 0.6962 -0.3667
vn -0.0633 0.8545 0.5155
vn 0.0252 0.8251 0.5644
vn 0.7307 0.2499 0.6353
vn 0.9072 -0.4200 0.0233
vn 0.4516 -0.6116 -0.6496
vn 0.1435 -0.4451 -0.8839
vn -0.1306 -0.2617 -0.9563
vn -0.5004 -0.0765 -0.8624
vn -0.5392 0.8411 0.0423
vn -0.4555 0.8608 0.2270
vn 0.3089 0.5399 0.7830
vn 0.6734 0.1592 0.7219
vn 0.8400 -0.2753 0.4675
vn 0.6419 -0.6992 -0.3147
vn 0.5723 -0.7196 -0.3933
vn -0.2271 -0.3112 -0.9228
vn -0.6013 -0.1068 -0.7918
vn -0.7429 0.0673 -0.6661
vn -0.7252 0.1531 -0.6713
vn -0.7870 0.3847 -0.4823
vn -0.7252 0.6811 -0.1005
vn -0.6872 0.7263 -0.0173
vn -0.5172 0.7645 0.3847
vn -0.5118 0.7628 0.3952
vn -0.5120 0.7629 0.3948
vn -0.5113 0.7626 0.3962
vn -0.2823 0.7746 0.5660
vn 0.0355 0.6192 0.7844
vn 0.4918 0.1269 0.8614
vn 0.7100 -0.2213 0.6685
vn 0.7717 -0.5296 0.3520
vn 0.7906 -0.5896 0.1654
vn 0.7208 -0.6845 0.1091
vn 0.6316 -0.7527 -0.1856
vn 0.0067 -0.6491 -0.7607
vn -0.7180 0.6324 0.2907
vn 0.3140 0.2271 0.9219
vn 0.1510 -0.7829 -0.6035
vn 0.0616 -0.7579 -0.6495
vn -0.2937 -0.5556 -0.7778
vn -0.3083 -0.5243 -0.7938
vn -0.6181 -0.3711 -0.6930
vn -0.8602 -0.0161 -0.5097
vn -0.9270 0.2941 -0.2327
vn -0.9303 0.3407 -0.1357
vn -0.9184 0.3828 -0.1004
vn -0.5016 0.5326 0.6817
vn -0.3684 0.5271 0.7658
vn -0.3497 0.5089 0.7866
vn -0.1515 0.4672 0.8711
vn -0.0949 0.3269 0.9403
vn 0.2235 0.1959 0.9548
vn 0.4540 -0.2322 0.8602
vn 0.5385 -0.3170 0.7807
vn 0.4727 -0.8612 0.1866
vn 0.4393 -0.8981 -0.0200
vn 0.2151 -0.8879 -0.4067
vn -0.9474 0.0862 -0.3083
vn -0.8740 0.3915 0.2879
vn -0.8162 0.4644 0.3439
vn 0.4717 -0.5243 0.7090
vn 0.5185 -0.6601 0.5435
vn 0.4579 -0.7326 0.5036
vn 0.4317 -0.8662 0.2517
vn 0.1833 -0.9723 -0.1447
vn 0.1519 -0.9446 -0.2909
vn -0.1833 -0.9132 -0.3640
vn -0.1866 -0.8600 -0.4750
vn -0.3662 -0.7032 -0.6094
vn -0.7076 -0.4519 -0.5432
vn -0.8597 -0.2976 -0.4150
vn -0.7093 0.3782 0.5948
vn -0.2396 0.0325 0.9703
vn 0.1001 -0.0751 0.9921
vn 0.1478 -0.2402 0.9594
vn -0.6294 -0.6434 -0.4359
vn -0.9184 -0.3043 -0.2528
vn -0.9755 -0.1838 -0.1213
vn -0.9302 0.0897 0.3559
vn -0.4940 0.1392 0.8582
vn -0.2592 0.0210 0.9656
vn 0.1775 -0.6244 0.7607
vn 0.2504 -0.7726 0.5834
vn 0.0468 -0.9090 0.4141
vn 0.1396 -0.9441 0.2986
vn 0.0646 -0.9979 -0.0009
vn -0.2569 -0.9661 -0.0239
vn -0.2541 -0.9293 -0.2681
vn -0.6440 -0.7119 -0.2802
vn -0.7844 -0.6106 -0.1087
vn -0.9841 -0.1759 0.0259
vn -0.9925 -0.0249 0.1199
vn -0.8575 0.0137 0.5142
vn -0.7336 0.0807 0.6747
vn -0.6756 0.0453 0.7358
vn -0.3291 -0.1946 0.9241
vn 0.0332 -0.3922 0.9193
vn 0.0263 -0.5661 0.8239
vn -0.6837 -0.7075 -0.1788
vn -0.6135 -0.1106 0.7819
vn -0.4122 -0.2422 0.8783
vn -0.0623 -0.6171 0.7844
vn -0.1221 -0.7878 0.6037
vn -0.0345 -0.8991 0.4363
vn -0.2172 -0.9137 0.3435
vn -0.3143 -0.9482 0.0464
vn -0.4109 -0.9095 0.0635
vn -0.5863 -0.8100 -0.0150
usemtl None.009
s 1
f 1//1 2//1 3//1
f 3//2 2//2 4//2
f 5//3 6//3 3//3
f 5//4 3//4 4//4
f 6//5 5//5 7//5
f 6//6 7//6 8//6
f 9//7 8//7 10//7
f 10//8 8//8 7//8
f 9//9 10//9 11//9
f 9//10 11//10 12//10
f 12//11 11//11 13//11
f 13//12 11//12 14//12
f 13//13 14//13 15//13
f 15//14 14//14 16//14
f 17//15 18//16 16//17
f 16//17 18//16 15//18
f 17//19 19//19 18//19
f 20//20 19//20 17//20
f 2//21 19//21 20//21
f 2//22 1//22 19//22
f 21//23 5//24 4//25
f 21//23 4//25 2//26
f 22//27 7//27 23//27
f 23//28 7//28 5//28
f 22//29 10//29 7//29
f 11//30 10//30 24//30
f 24//31 10//31 22//31
f 24//32 14//32 11//32
f 25//33 17//33 16//33
f 25//34 16//35 26//36
f 26//36 16//35 14//37
f 27//38 17//38 25//38
f 21//39 2//39 27//39
f 27//40 2//40 20//40
f 27//41 20//41 17//41
f 28//42 29//42 30//42
f 28//43 30//43 31//43
f 31//44 30//44 32//44
f 31//45 32//45 26//45
f 31//46 26//46 24//46
f 24//47 26//36 14//37
f 29//48 28//48 33//48
f 29//49 33//49 34//49
f 34//50 33//50 35//50
f 35//51 33//51 36//51
f 35//52 36//52 37//52
f 37//53 36//53 38//53
f 38//54 36//54 39//54
f 38//55 39//55 40//55
f 40//56 39//56 41//56
f 40//57 41//57 42//57
f 42//58 41//58 43//58
f 43//59 41//59 44//59
f 43//60 44//60 45//60
f 45//61 44//61 46//61
f 46//62 44//62 47//62
f 46//63 47//63 48//63
f 48//64 47//64 49//64
f 49//65 47//65 23//65
f 49//66 23//66 21//66
f 21//67 23//67 5//67
f 50//68 51//68 52//68
f 53//68 54//68 50//68
f 50//68 55//68 53//68
f 50//68 56//68 55//68
f 50//68 52//68 56//68
f 52//69 57//69 56//69
f 56//70 57//70 58//70
f 56//71 58//71 55//71
f 55//72 58//72 59//72
f 55//73 59//73 53//73
f 53//74 59//74 60//74
f 53//75 60//75 54//75
f 54//76 60//76 50//76
f 50//77 60//77 61//77
f 50//78 61//78 51//78
f 51//79 61//79 62//79
f 51//80 62//80 52//80
f 52//81 62//81 57//81
f 60//68 63//68 64//68
f 60//68 64//68 65//68
f 60//68 65//68 66//68
f 60//68 66//68 67//82
f 60//68 67//82 61//68
f 61//68 67//82 68//68
f 61//68 68//68 69//68
f 57//68 70//68 71//68
f 57//68 71//68 58//68
f 58//68 71//68 72//68
f 58//68 72//68 73//68
f 58//68 73//68 59//68
f 59//68 73//68 74//68
f 59//68 74//68 75//83
f 59//68 75//83 60//68
f 60//68 75//83 63//68
f 61//68 69//68 62//68
f 62//68 69//68 76//68
f 62//68 76//68 77//68
f 62//68 77//68 57//68
f 57//68 77//68 78//68
f 57//68 78//68 79//68
f 57//68 79//68 70//68
f 64//84 29//84 65//84
f 65//85 29//85 34//85
f 65//86 34//87 35//88
f 65//86 35//88 66//89
f 66//90 35//90 37//90
f 66//91 37//91 67//91
f 67//92 37//92 38//92
f 67//93 38//93 68//93
f 68//94 38//94 40//94
f 68//95 40//95 69//95
f 69//96 40//96 42//96
f 69//97 42//97 43//97
f 69//98 43//98 76//98
f 76//99 43//99 45//99
f 76//100 45//100 77//100
f 77//101 45//102 46//103
f 77//101 46//103 78//104
f 78//105 46//105 48//105
f 78//106 48//106 79//106
f 79//107 48//108 49//109
f 79//107 49//109 70//110
f 70//111 49//112 21//113
f 70//111 21//113 71//114
f 71//115 21//116 27//117
f 71//115 27//117 72//118
f 72//119 27//119 25//119
f 72//120 25//120 73//120
f 73//121 25//121 26//121
f 73//122 26//122 74//122
f 74//123 26//123 32//123
f 74//124 32//124 75//124
f 75//125 32//125 30//125
f 75//126 30//126 63//126
f 63//127 30//127 29//127
f 63//128 29//128 64//128
f 22//129 33//130 28//131
f 36//130 33//130 22//129
f 22//129 39//130 36//130
f 22//129 41//132 39//130
f 22//129 44//133 41//132
f 22//129 47//134 44//133
f 22//129 23//130 47//134
f 22//129 31//135 24//136
f 28//131 31//135 22//129
f 80//137 81//137 82//137
f 83//138 19//138 1//138
f 18//139 19//139 83//139
f 15//140 84//140 13//140
f 13//141 84//141 12//141
f 85//142 12//142 84//142
f 12//143 85//143 9//143
f 82//144 81//144 86//144
f 82//145 86//145 87//145
f 82//146 87//146 88//146
f 82//147 88//147 80//147
f 88//148 89//148 80//148
f 80//149 89//150 90//151
f 80//152 90//152 81//152
f 81//153 90//153 91//153
f 81//154 91//154 92//154
f 81//155 92//155 86//155
f 89//150 93//156 90//151
f 91//157 94//157 92//157
f 92//158 95//158 86//158
f 86//159 96//159 87//159
f 88//160 97//160 89//160
f 89//161 98//161 93//161
f 94//162 99//162 92//162
f 92//163 99//163 95//163
f 95//164 100//164 86//164
f 86//165 100//165 96//165
f 96//166 101//166 87//166
f 87//167 101//167 102//167
f 87//168 102//168 88//168
f 88//169 102//169 97//169
f 89//170 97//170 98//170
f 93//171 103//171 90//171
f 90//172 103//172 104//172
f 90//173 104//173 91//173
f 91//174 104//174 105//174
f 91//175 105//175 94//175
f 94//176 105//176 106//176
f 94//177 106//177 99//177
f 96//178 107//178 101//178
f 102//179 108//179 97//179
f 98//180 109//180 93//180
f 93//181 109//181 103//181
f 99//182 110//182 95//182
f 95//183 110//183 100//183
f 100//184 111//184 96//184
f 96//185 111//185 107//185
f 97//186 108//186 112//186
f 97//187 112//187 98//187
f 112//188 109//188 98//188
f 109//189 113//189 103//189
f 103//190 113//190 114//190
f 103//191 114//191 104//191
f 104//192 114//192 115//192
f 104//193 115//193 105//193
f 101//194 116//194 102//194
f 102//195 116//195 108//195
f 108//196 117//196 112//196
f 112//197 118//197 109//197
f 109//198 119//198 113//198
f 115//199 120//199 105//199
f 105//200 120//200 106//200
f 106//201 121//201 99//201
f 99//202 121//202 122//202
f 99//203 122//203 110//203
f 110//204 123//204 100//204
f 100//205 123//205 111//205
f 111//206 123//206 124//206
f 111//207 124//207 107//207
f 107//208 125//208 101//208
f 101//209 125//209 116//209
f 108//210 116//210 126//210
f 108//211 126//211 117//211
f 117//212 118//212 112//212
f 118//213 127//213 109//213
f 109//214 127//214 119//214
f 113//215 119//215 128//215
f 113//216 128//216 114//216
f 106//217 120//217 129//217
f 106//218 129//218 121//218
f 110//219 122//219 123//219
f 107//220 124//220 125//220
f 116//221 130//221 126//221
f 126//222 131//222 117//222
f 117//223 131//223 118//223
f 118//224 132//224 127//224
f 114//225 133//225 115//225
f 115//226 133//226 120//226
f 121//227 134//227 122//227
f 122//228 135//228 123//228
f 123//229 136//229 124//229
f 125//230 137//230 116//230
f 116//231 137//231 130//231
f 131//232 132//232 118//232
f 132//233 138//233 127//233
f 127//234 138//234 139//234
f 127//235 139//235 119//235
f 119//236 139//236 128//236
f 128//237 140//237 114//237
f 114//238 140//238 133//238
f 133//239 141//240 120//241
f 120//241 141//240 142//242
f 120//243 142//243 129//243
f 129//244 134//244 121//244
f 122//245 143//245 135//245
f 135//246 136//246 123//246
f 124//247 136//247 144//247
f 124//248 144//248 125//248
f 125//249 144//249 145//249
f 125//250 145//250 137//250
f 126//251 146//251 131//251
f 133//252 140//252 141//252
f 134//253 143//253 122//253
f 130//254 147//254 126//254
f 126//255 147//255 146//255
f 131//256 146//256 148//256
f 131//257 148//257 132//257
f 132//258 148//258 138//258
f 138//259 149//259 139//259
f 139//260 150//260 128//260
f 128//261 150//261 151//261
f 128//262 151//262 140//262
f 142//263 141//263 152//263
f 142//264 152//264 129//264
f 129//265 152//265 153//265
f 129//266 153//266 134//266
f 134//267 153//267 154//267
f 134//268 154//268 143//268
f 135//269 143//269 155//269
f 135//270 155//270 136//270
f 144//271 156//271 145//271
f 145//272 156//272 137//272
f 130//273 137//273 147//273
f 139//274 149//274 150//274
f 140//275 151//275 157//275
f 140//276 157//276 141//276
f 136//277 155//277 158//277
f 136//278 158//278 144//278
f 144//279 158//279 159//279
f 144//280 159//280 156//280
f 137//281 156//281 160//281
f 137//282 160//282 147//282
f 147//283 160//283 161//283
f 147//284 161//284 146//284
f 146//285 161//285 148//285
f 148//286 162//286 138//286
f 138//287 162//287 149//287
f 141//288 157//288 152//288
f 154//289 153//289 163//289
f 154//290 163//290 143//290
f 143//291 163//291 155//291
f 148//292 161//292 162//292
f 162//293 85//293 149//293
f 149//294 85//294 150//294
f 151//295 84//295 157//295
f 153//296 152//296 164//296
f 153//297 164//297 163//297
f 155//298 165//298 158//298
f 158//299 165//299 159//299
f 159//300 165//300 166//300
f 159//301 166//301 156//301
f 156//302 166//302 160//302
f 160//303 166//303 167//303
f 160//304 167//304 161//304
f 161//305 167//305 162//305
f 162//306 9//306 85//306
f 85//307 84//307 150//307
f 150//308 84//308 151//308
f 84//309 15//309 157//309
f 157//310 15//310 152//310
f 152//311 15//311 164//311
f 164//312 83//312 163//312
f 163//313 83//313 155//313
f 155//314 83//314 165//314
f 167//315 9//315 162//315
f 164//316 15//316 18//316
f 164//317 18//317 83//317
f 83//318 1//318 165//318
f 165//319 1//319 3//319
f 165//320 3//320 166//320
f 166//321 3//321 6//321
f 166//322 6//322 167//322
f 167//323 6//323 8//323
f 167//324 8//324 9//324
