# Blender v3.2.1 OBJ File: ''
# www.blender.org
mtllib Hebel7-1.mtl
o Drehmaschine_-_Hebel7-1_Drehmaschine_-_Hebel7-1.002
v -0.001971 -0.002595 -0.002667
v -0.001566 -0.002567 -0.002578
v -0.000785 -0.001334 -0.001991
v -0.001175 -0.001011 -0.001981
v -0.002979 -0.001840 -0.002756
v -0.002586 -0.002349 -0.002756
v -0.003288 -0.001135 -0.002741
v -0.001497 -0.000446 -0.001983
v -0.002990 -0.000282 -0.002555
v -0.002898 0.000012 -0.002502
v -0.001602 0.000347 -0.002035
v -0.003256 0.000399 -0.002672
v -0.003345 0.001045 -0.002753
v -0.001228 0.000959 -0.001984
v -0.002426 0.002306 -0.002666
v -0.003043 0.001739 -0.002744
v -0.001535 0.002452 -0.002505
v -0.000709 0.001455 -0.002030
v -0.001122 0.003215 -0.002723
v -0.000788 0.003398 -0.002755
v 0.001002 0.003105 -0.002685
v 0.000581 0.003422 -0.002760
v 0.000044 0.001547 -0.001998
v 0.001236 0.002708 -0.002576
v 0.000582 0.001420 -0.001994
v 0.001558 0.002572 -0.002585
v 0.001181 0.000974 -0.001994
v 0.001912 0.002609 -0.002674
v 0.002414 0.002473 -0.002755
v 0.002977 0.001766 -0.002742
v 0.001452 0.000472 -0.001999
v 0.003187 0.000892 -0.002675
v 0.002945 0.000274 -0.002578
v 0.001513 -0.000048 -0.001989
v 0.002994 -0.000080 -0.002593
v 0.003298 -0.000673 -0.002714
v 0.001401 -0.000614 -0.001997
v 0.003288 -0.001062 -0.002749
v 0.002412 -0.002347 -0.002717
v 0.002696 -0.002154 -0.002744
v 0.001085 -0.001049 -0.001992
v 0.001681 -0.002439 -0.002577
v 0.001426 -0.002623 -0.002585
v 0.000698 -0.001363 -0.001999
v 0.001253 -0.002989 -0.002678
v 0.000755 -0.003383 -0.002748
v 0.000213 -0.001514 -0.001989
v -0.000311 -0.001515 -0.002002
v -0.000021 -0.003468 -0.002733
v -0.000854 -0.003276 -0.002719
v -0.001283 -0.002704 -0.002581
v -0.000147 0.003483 -0.002750
v -0.003266 -0.001293 -0.003836
v -0.002956 -0.001880 -0.003874
v -0.002570 -0.002359 -0.003876
v -0.000549 -0.003446 -0.002805
v -0.000577 -0.003440 -0.003849
v 0.000134 -0.003465 -0.003897
v 0.000863 -0.003360 -0.003827
v -0.000025 0.000005 -0.003387
v 0.003174 -0.000578 -0.003943
v 0.003140 -0.001163 -0.003971
v 0.002883 -0.000053 -0.003869
v 0.002834 0.000353 -0.003887
v 0.003141 0.001059 -0.003963
v 0.002464 0.002246 -0.003969
v 0.002095 0.002495 -0.003941
v 0.001477 0.002495 -0.003869
v 0.001171 0.002675 -0.003864
v 0.000564 0.003278 -0.003968
v -0.001012 0.003185 -0.003959
v -0.001405 0.002587 -0.003873
v -0.001680 0.002329 -0.003877
v -0.002549 0.002204 -0.003963
v -0.003261 0.000730 -0.003960
v -0.002932 0.000073 -0.003871
v -0.002928 -0.000313 -0.003872
v -0.003175 -0.001103 -0.003967
v -0.001570 -0.002477 -0.003876
v -0.002243 -0.002438 -0.003959
v -0.001215 -0.002666 -0.003882
v -0.000706 -0.003261 -0.003956
v 0.000706 -0.003312 -0.003954
v 0.001095 -0.003054 -0.003935
v 0.001356 -0.002576 -0.003873
v 0.001630 -0.002319 -0.003877
v 0.002391 -0.002233 -0.003961
v -0.002751 0.002183 -0.002798
v -0.002772 0.002161 -0.003835
v -0.003115 0.001612 -0.003879
v -0.003374 0.000931 -0.003864
v 0.000530 0.003440 -0.003867
v -0.000207 0.003484 -0.003877
v -0.000858 0.003387 -0.003857
v 0.003251 0.001179 -0.002794
v 0.003235 0.001248 -0.003841
v 0.002922 0.001871 -0.003870
v 0.002455 0.002437 -0.003868
v 0.002745 -0.002105 -0.003871
v 0.003065 -0.001635 -0.002801
v 0.003069 -0.001621 -0.003849
v 0.003333 -0.000896 -0.003855
v -0.000127 0.000301 0.000596
v -0.000348 0.000011 0.000596
v -0.000161 -0.000272 0.000596
v 0.000204 0.000225 0.000596
v 0.000271 -0.000081 0.000596
v 0.000100 -0.000277 0.000596
v -0.000348 0.000029 -0.000004
v -0.000110 0.000306 -0.000004
v 0.000193 0.000229 -0.000004
v 0.000278 -0.000072 -0.000004
v 0.000085 -0.000284 -0.000004
v -0.000176 -0.000265 -0.000004
v -0.000255 -0.001501 -0.000004
v 0.000700 -0.001335 -0.000004
v 0.001361 -0.000627 -0.000004
v -0.000873 0.001271 -0.000004
v -0.001453 0.000529 -0.000004
v -0.001510 -0.000276 -0.000004
v -0.001140 -0.001039 -0.000004
v 0.001462 0.000337 -0.000004
v 0.000961 0.001166 -0.000004
v 0.000062 0.001526 -0.000004
v 0.000915 0.001188 -0.001922
v -0.000575 0.001429 -0.001917
v -0.001521 0.000282 -0.001927
v 0.002964 0.000297 -0.003793
v 0.002977 -0.000007 -0.003743
v 0.001728 -0.002448 -0.003767
v 0.001470 -0.002599 -0.003741
v 0.001212 0.002773 -0.003742
v 0.001488 0.002599 -0.003744
v -0.001777 0.002458 -0.003767
v -0.001717 0.002474 -0.002613
v -0.001524 0.002607 -0.003739
v -0.001464 0.002673 -0.002629
v -0.003041 -0.000308 -0.003742
v -0.003019 -0.000229 -0.002666
v -0.003023 0.000007 -0.003754
v -0.003050 0.000081 -0.002620
v -0.001288 -0.002721 -0.003770
v -0.001540 -0.002587 -0.003746
v 0.001228 -0.003040 -0.003837
v 0.001035 -0.003255 -0.002804
v 0.002480 -0.002322 -0.003861
v 0.002177 -0.002442 -0.003828
v 0.002074 -0.002450 -0.002704
v 0.003240 -0.000406 -0.002737
v 0.003227 -0.000393 -0.003832
v 0.003212 0.000749 -0.003847
v 0.003193 0.000669 -0.002745
v 0.001941 0.002622 -0.003828
v 0.000968 0.003154 -0.003842
v -0.001335 0.002987 -0.002749
v -0.001277 0.003053 -0.003838
v -0.002343 0.002436 -0.003831
v -0.002300 0.002444 -0.002740
v -0.003286 0.000437 -0.003840
v -0.003378 0.000721 -0.002795
v -0.003291 -0.000972 -0.003865
v -0.003250 -0.000668 -0.002766
v -0.003207 -0.000629 -0.003844
v -0.001950 -0.002607 -0.003834
v -0.002328 -0.002537 -0.002790
v -0.002296 -0.002553 -0.003828
v -0.001023 -0.003153 -0.003813
v -0.001088 -0.003059 -0.002703
vn -0.1794 -0.3282 0.9274
vn -0.2194 -0.2924 0.9308
vn -0.2935 -0.2282 0.9283
vn -0.2468 -0.2776 0.9285
vn -0.3254 -0.1620 0.9316
vn -0.3234 -0.1810 0.9288
vn -0.3639 -0.0753 0.9284
vn -0.3621 -0.0530 0.9306
vn -0.3428 0.0159 0.9393
vn -0.3560 0.0779 0.9312
vn -0.3560 0.0776 0.9313
vn -0.3561 0.0764 0.9313
vn -0.3565 0.0683 0.9318
vn -0.3032 0.2018 0.9313
vn -0.2142 0.2697 0.9388
vn -0.1996 0.2955 0.9343
vn -0.1295 0.3370 0.9326
vn -0.0992 0.3443 0.9336
vn 0.0980 0.3505 0.9314
vn 0.1295 0.3323 0.9342
vn 0.0818 0.3756 0.9232
vn 0.1663 0.3349 0.9275
vn 0.2046 0.2967 0.9328
vn 0.2181 0.2929 0.9310
vn 0.2269 0.2859 0.9310
vn 0.2808 0.2407 0.9291
vn 0.3272 0.1501 0.9330
vn 0.3622 0.0040 0.9321
vn 0.3680 0.0607 0.9278
vn 0.3778 0.0134 0.9258
vn 0.3778 0.0130 0.9258
vn 0.3778 0.0128 0.9258
vn 0.3776 0.0042 0.9259
vn 0.3500 -0.0897 0.9325
vn 0.3503 -0.0843 0.9328
vn 0.3504 -0.0818 0.9330
vn 0.3499 -0.0923 0.9322
vn 0.2609 -0.2536 0.9315
vn 0.2170 -0.2981 0.9295
vn 0.2208 -0.2964 0.9292
vn 0.2156 -0.2988 0.9296
vn 0.1991 -0.3163 0.9275
vn 0.2223 -0.2956 0.9291
vn 0.1845 -0.3246 0.9277
vn 0.1404 -0.3405 0.9297
vn 0.1250 -0.3416 0.9315
vn -0.0224 -0.3531 0.9353
vn -0.0677 -0.3583 0.9312
vn -0.1504 -0.3304 0.9318
vn -0.1481 -0.3325 0.9314
vn -0.1451 -0.3344 0.9312
vn -0.1513 -0.3297 0.9319
vn -0.1173 -0.3656 0.9234
vn 0.0576 -0.3613 0.9307
vn 0.2953 -0.2044 0.9333
vn 0.3289 -0.1738 0.9282
vn 0.3176 0.1621 0.9343
vn 0.0434 0.3654 0.9298
vn -0.0828 0.3537 0.9317
vn -0.0545 0.3474 0.9361
vn -0.3362 0.1274 0.9331
vn -0.3353 0.1284 0.9333
vn -0.3327 0.1314 0.9338
vn -0.3318 0.1323 0.9340
vn -0.9149 -0.4018 0.0396
vn -0.8841 -0.4673 -0.0014
vn -0.7915 -0.6111 0.0056
vn -0.7785 -0.6277 -0.0057
vn -0.0419 -0.9991 -0.0048
vn -0.0411 -0.9991 -0.0053
vn -0.0372 -0.9993 -0.0073
vn -0.0365 -0.9993 -0.0075
vn 0.1102 -0.9938 0.0120
vn 0.1431 -0.9897 -0.0062
vn -0.1624 0.0497 -0.9855
vn -0.1622 0.0505 -0.9855
vn -0.1613 0.0561 -0.9853
vn -0.1624 0.0495 -0.9855
vn -0.1645 -0.0628 -0.9844
vn -0.1681 -0.0342 -0.9852
vn -0.1496 -0.0895 -0.9847
vn -0.1399 -0.1003 -0.9851
vn -0.1162 -0.1207 -0.9859
vn -0.0948 -0.1338 -0.9865
vn -0.0037 -0.1740 -0.9847
vn -0.0042 -0.1740 -0.9847
vn -0.0032 -0.1741 -0.9847
vn 0.0047 -0.1756 -0.9844
vn 0.0367 -0.1659 -0.9855
vn 0.1262 -0.1180 -0.9850
vn 0.1266 -0.1177 -0.9849
vn 0.1253 -0.1187 -0.9850
vn 0.1156 -0.1255 -0.9853
vn 0.1569 -0.0778 -0.9845
vn 0.1628 -0.0519 -0.9853
vn 0.1644 0.0052 -0.9864
vn 0.1573 0.0694 -0.9851
vn 0.1281 0.1143 -0.9851
vn 0.0647 0.1539 -0.9860
vn 0.0467 0.1621 -0.9857
vn 0.0075 0.1701 -0.9854
vn -0.0532 0.1572 -0.9861
vn -0.0552 0.1565 -0.9861
vn -0.0540 0.1569 -0.9861
vn -0.0530 0.1573 -0.9861
vn -0.1266 0.1177 -0.9849
vn -0.1269 0.1175 -0.9849
vn -0.1264 0.1179 -0.9850
vn -0.1220 0.1210 -0.9851
vn -0.1471 0.0938 -0.9847
vn 0.1475 0.0967 -0.9843
vn -0.8354 0.5496 0.0056
vn -0.8478 0.5303 -0.0049
vn -0.9166 0.3997 0.0142
vn -0.9350 0.3545 -0.0124
vn 0.0835 0.9964 0.0128
vn 0.0592 0.9982 -0.0018
vn -0.1313 0.9913 0.0084
vn -0.1482 0.9890 -0.0006
vn 0.9063 0.4225 0.0142
vn 0.8933 0.4495 -0.0016
vn 0.7822 0.6227 0.0199
vn 0.7715 0.6361 0.0077
vn 0.8155 -0.5787 0.0103
vn 0.8314 -0.5556 -0.0045
vn 0.9318 -0.3630 -0.0017
vn 0.9395 -0.3422 -0.0131
vn 0.0000 0.0000 1.0000
vn -0.7945 0.6070 0.0173
vn -0.7596 0.6502 -0.0152
vn 0.2232 0.9747 0.0144
vn 0.2458 0.9693 0.0018
vn 0.9623 0.2717 -0.0152
vn 0.9762 0.2163 0.0141
vn 0.7531 -0.6579 -0.0014
vn 0.7381 -0.6746 -0.0116
vn -0.0200 -0.9997 0.0109
vn -0.0729 -0.9973 -0.0108
vn -0.8344 -0.5510 0.0132
vn -0.8633 -0.5045 -0.0165
vn -0.8993 -0.4361 0.0316
vn -0.8692 -0.4945 0.0085
vn -0.6382 -0.7699 0.0006
vn -0.4630 -0.8850 0.0490
vn -0.3561 -0.9343 0.0164
vn 0.0020 -1.0000 0.0068
vn 0.1712 -0.9841 0.0463
vn 0.2962 -0.9550 0.0131
vn 0.6302 -0.7764 0.0102
vn 0.7303 -0.6818 0.0433
vn 0.8089 -0.5879 0.0123
vn 0.9808 -0.1940 0.0183
vn 0.9935 -0.1041 0.0457
vn 0.9933 0.1157 0.0031
vn 0.8798 0.4746 0.0280
vn 0.8553 0.5162 0.0447
vn 0.6251 0.7805 -0.0062
vn 0.5715 0.8206 -0.0045
vn 0.3711 0.9274 0.0474
vn 0.2301 0.9731 0.0081
vn -0.1857 0.9825 0.0120
vn -0.2632 0.9640 0.0386
vn -0.5827 0.8124 -0.0237
vn -0.7871 0.6153 0.0442
vn -0.9181 0.3958 -0.0184
vn -0.9972 0.0706 0.0262
vn -0.9995 -0.0327 -0.0038
vn 0.9988 0.0462 0.0165
vn 0.9906 0.1370 -0.0056
vn 0.5078 -0.8610 0.0267
vn 0.5852 -0.8108 0.0056
vn 0.5342 0.8446 0.0360
vn 0.3892 0.9212 -0.0023
vn -0.5065 0.8621 0.0151
vn -0.6203 0.7842 -0.0136
vn -0.9982 0.0577 0.0162
vn -0.9950 -0.0986 -0.0175
vn -0.4709 -0.8821 0.0153
vn -0.4351 -0.9004 0.0055
vn 0.9013 -0.4325 0.0253
vn 0.8765 -0.4815 0.0023
vn 0.7720 -0.6355 0.0116
vn 0.6589 -0.7515 -0.0337
vn 0.4167 -0.9087 0.0231
vn 0.6336 -0.7736 -0.0059
vn 0.5634 -0.8260 0.0156
vn 0.3684 -0.9297 0.0016
vn 0.2926 -0.9560 0.0202
vn 0.0126 -0.9999 -0.0060
vn -0.0264 -0.9996 0.0069
vn 0.8395 0.5434 -0.0033
vn 0.8041 0.5939 0.0259
vn 0.9772 0.2120 -0.0094
vn 0.9769 0.2134 -0.0090
vn 0.9780 0.2085 -0.0103
vn 0.9783 0.2070 -0.0105
vn 0.9989 -0.0285 0.0362
vn 0.9987 -0.0472 -0.0184
vn 0.9935 -0.1132 0.0088
vn 0.8758 -0.4823 -0.0198
vn 0.8482 -0.5297 0.0031
vn -0.0506 0.9987 0.0102
vn -0.0968 0.9949 0.0287
vn 0.2641 0.9643 0.0175
vn 0.3374 0.9412 -0.0180
vn 0.5482 0.8363 -0.0110
vn 0.5984 0.8011 0.0156
vn 0.8420 0.5395 -0.0026
vn 0.8601 0.5099 0.0107
vn -0.9212 0.3882 0.0261
vn -0.8764 0.4812 -0.0183
vn -0.7292 0.6843 0.0018
vn -0.6238 0.7811 -0.0268
vn -0.4791 0.8775 0.0215
vn -0.5399 0.8417 -0.0066
vn -0.5024 0.8645 0.0138
vn -0.0374 0.9993 -0.0053
vn -0.0393 0.9992 -0.0063
vn -0.0466 0.9989 -0.0100
vn -0.0485 0.9988 -0.0110
vn -0.8403 -0.5419 0.0154
vn -0.8539 -0.5204 0.0044
vn -0.9368 -0.3496 0.0120
vn -0.9834 -0.1775 -0.0387
vn -0.9949 0.0993 0.0158
vn -0.9970 -0.0765 -0.0088
vn -0.9965 0.0823 0.0143
vn -0.9703 0.2401 -0.0303
vn -0.8866 0.4622 -0.0191
vn -0.8859 0.4636 -0.0184
vn -0.8839 0.4673 -0.0166
vn -0.8833 0.4685 -0.0163
vn 0.0460 -0.9989 0.0103
vn 0.0659 -0.9977 0.0183
vn -0.1614 -0.9869 0.0073
vn -0.1639 -0.9865 0.0063
vn -0.1546 -0.9879 0.0098
vn -0.1517 -0.9884 0.0109
vn -0.5788 -0.8155 -0.0011
vn -0.5899 -0.8074 -0.0056
vn -0.4841 -0.8750 0.0080
vn -0.5412 -0.8408 -0.0109
vn -0.6796 -0.7332 0.0226
vn -0.8525 -0.5227 -0.0055
vn -0.8753 -0.4834 0.0114
vn -0.4482 0.7070 -0.5470
vn 0.0170 0.4819 -0.8760
vn 0.0576 0.6730 -0.7374
vn -0.4057 0.7833 -0.4711
vn -0.3792 0.4182 -0.8254
vn -0.2808 0.1336 -0.9504
vn -0.4644 0.1566 -0.8717
vn -0.5132 0.3821 -0.7685
vn -0.4882 0.1989 -0.8498
vn -0.7083 0.2455 -0.6618
vn -0.5581 0.6713 -0.4877
vn -0.4013 -0.3176 -0.8591
vn -0.5455 -0.4715 -0.6929
vn -0.7963 -0.1699 -0.5806
vn -0.1024 0.5077 -0.8554
vn -0.0244 0.3227 -0.9462
vn 0.0437 0.5333 -0.8448
vn -0.7858 -0.0064 -0.6185
vn -0.7528 0.0179 -0.6580
vn 0.3967 0.5420 -0.7409
vn 0.3432 0.1868 -0.9205
vn 0.7644 0.3482 -0.5427
vn -0.7295 -0.1153 -0.6742
vn -0.5303 0.1804 -0.8284
vn -0.3380 0.2161 -0.9160
vn -0.6378 0.5104 -0.5768
vn 0.4015 0.6391 -0.6560
vn 0.3949 0.6903 -0.6062
vn -0.2917 -0.2303 -0.9284
vn -0.2608 -0.1880 -0.9469
vn -0.5785 -0.2567 -0.7742
vn -0.0938 0.5956 -0.7978
vn -0.1564 0.7668 -0.6225
vn 0.2411 0.7906 -0.5628
vn 0.2478 0.4605 -0.8524
vn 0.0766 -0.5062 -0.8590
vn 0.1757 -0.7323 -0.6579
vn -0.1212 -0.7201 -0.6832
vn -0.3316 -0.6376 -0.6954
vn 0.5069 0.4204 -0.7525
vn 0.5519 0.2411 -0.7983
vn 0.3630 0.2031 -0.9094
vn -0.3855 -0.7040 -0.5965
vn -0.4411 -0.7336 -0.5169
vn 0.8140 -0.0319 -0.5800
vn 0.3618 -0.2549 -0.8967
vn 0.4448 -0.3411 -0.8281
vn -0.4803 -0.6795 -0.5545
vn -0.4747 -0.3037 -0.8261
vn -0.6900 -0.3605 -0.6276
vn 0.8079 -0.0617 -0.5861
vn 0.5908 0.0364 -0.8060
vn 0.1705 -0.8332 -0.5261
vn -0.0770 -0.5537 -0.8292
vn -0.0103 -0.3143 -0.9493
vn 0.4455 0.3629 -0.8184
vn 0.5807 0.5204 -0.6261
vn 0.5806 0.5204 -0.6261
vn 0.7317 0.1845 -0.6562
vn 0.5027 0.0122 -0.8644
vn 0.5941 -0.2226 -0.7730
vn 0.7096 -0.2458 -0.6604
vn 0.5143 -0.6039 -0.6089
vn 0.4086 -0.5624 -0.7188
vn 0.7459 -0.2769 -0.6058
vn 0.3173 -0.2307 -0.9198
vn 0.4954 -0.2945 -0.8172
vn 0.3782 -0.4185 -0.8257
vn 0.4042 -0.7723 -0.4900
vn 0.3780 -0.4964 -0.7815
vn 0.1775 -0.6504 -0.7386
vn -0.0372 -0.5080 -0.8605
vn -0.0894 -0.6854 -0.7227
vn -0.5964 0.4875 0.6377
vn -0.2310 0.8059 0.5451
vn -0.3819 0.5445 0.7468
vn -0.6712 0.5164 0.5318
vn -0.1995 0.5983 0.7760
vn -0.4782 0.7122 0.5139
vn -0.4707 0.4043 0.7842
vn 0.9430 -0.0770 0.3238
vn 0.7352 -0.1859 0.6519
vn 0.5760 0.1994 0.7927
vn -0.7295 -0.0142 0.6838
vn -0.6656 -0.3221 0.6732
vn 0.6875 0.2103 0.6951
vn -0.9721 -0.1276 0.1970
vn -0.5980 0.0438 0.8003
vn 0.5101 -0.2727 0.8157
vn -0.7074 0.0947 0.7005
vn -0.8472 0.3562 0.3941
vn 0.2216 -0.6337 0.7411
vn -0.3464 -0.6017 0.7197
vn 0.4211 -0.6444 0.6383
vn -0.1318 -0.6248 0.7696
vn -0.3999 -0.4875 0.7762
vn -0.8179 -0.0712 0.5709
vn -0.1280 0.9216 0.3663
vn -0.4695 0.5543 0.6873
vn 0.5870 0.7903 -0.1757
vn -0.6438 0.3360 0.6875
usemtl None.003
s 1
f 1//1 2//1 3//1
f 4//2 1//2 3//2
f 4//3 5//3 6//3
f 4//4 6//4 1//4
f 4//5 7//5 5//5
f 4//6 8//6 7//6
f 9//7 7//7 8//7
f 8//8 10//8 9//8
f 11//9 10//9 8//9
f 10//10 11//11 12//12
f 11//11 13//13 12//12
f 14//14 15//14 16//14
f 17//15 15//15 18//15
f 18//16 15//16 14//16
f 18//17 19//17 17//17
f 18//18 20//18 19//18
f 21//19 22//19 23//19
f 21//20 23//20 24//20
f 24//21 23//21 25//21
f 24//22 25//22 26//22
f 26//23 27//23 28//23
f 27//24 26//24 25//24
f 28//25 27//25 29//25
f 27//26 30//26 29//26
f 31//27 32//27 30//27
f 31//28 33//28 32//28
f 33//29 31//29 34//29
f 33//30 34//31 35//32
f 36//33 35//32 34//31
f 37//34 36//35 34//36
f 37//34 38//37 36//35
f 39//38 40//38 41//38
f 41//39 42//40 39//41
f 43//42 42//42 44//42
f 44//43 42//40 41//39
f 44//44 45//44 43//44
f 44//45 46//45 45//45
f 47//46 46//46 44//46
f 48//47 49//47 47//47
f 48//48 50//48 49//48
f 48//49 51//50 50//51
f 48//49 2//52 51//50
f 3//53 2//53 48//53
f 47//54 49//54 46//54
f 41//55 40//55 37//55
f 37//56 40//56 38//56
f 31//57 30//57 27//57
f 23//58 22//58 52//58
f 23//59 52//59 18//59
f 18//60 52//60 20//60
f 14//61 16//62 11//63
f 11//63 16//62 13//64
f 7//65 53//65 5//65
f 5//66 53//66 54//66
f 5//67 54//67 6//67
f 6//68 54//68 55//68
f 56//69 57//70 49//71
f 49//71 57//70 58//72
f 49//73 58//73 46//73
f 46//74 58//74 59//74
f 60//75 61//76 62//77
f 63//78 61//76 60//75
f 64//79 63//79 60//79
f 65//80 64//80 60//80
f 66//81 65//81 60//81
f 60//82 67//82 66//82
f 68//83 67//83 60//83
f 60//84 69//84 68//84
f 70//85 69//86 60//87
f 70//85 60//87 71//88
f 72//89 71//89 60//89
f 73//90 72//91 60//92
f 74//93 73//90 60//92
f 75//94 74//94 60//94
f 76//95 75//95 60//95
f 77//96 76//96 60//96
f 78//97 77//97 60//97
f 79//98 80//98 60//98
f 60//99 81//99 79//99
f 82//100 81//100 60//100
f 83//101 82//101 60//101
f 84//102 83//103 60//104
f 85//105 84//102 60//104
f 86//106 85//107 60//108
f 87//109 86//106 60//108
f 62//110 87//110 60//110
f 80//111 78//111 60//111
f 88//112 89//112 16//112
f 16//113 89//113 90//113
f 16//114 90//114 13//114
f 13//115 90//115 91//115
f 22//116 92//116 52//116
f 52//117 92//117 93//117
f 52//118 93//118 20//118
f 20//119 93//119 94//119
f 95//120 96//120 30//120
f 30//121 96//121 97//121
f 30//122 97//122 29//122
f 29//123 97//123 98//123
f 40//124 99//124 100//124
f 100//125 99//125 101//125
f 100//126 101//126 38//126
f 38//127 101//127 102//127
f 103//128 104//128 105//128
f 106//128 103//128 105//128
f 105//128 107//128 106//128
f 108//128 107//128 105//128
f 109//129 104//129 103//129
f 109//130 103//130 110//130
f 110//131 103//131 106//131
f 110//132 106//132 111//132
f 111//133 106//133 112//133
f 112//134 106//134 107//134
f 112//135 107//135 108//135
f 112//136 108//136 113//136
f 113//137 108//137 105//137
f 113//138 105//138 114//138
f 114//139 105//139 104//139
f 114//140 104//140 109//140
f 114//128 115//128 113//128
f 113//128 115//128 116//128
f 113//128 116//128 112//128
f 112//128 116//128 117//128
f 110//128 118//128 109//128
f 109//128 118//128 119//128
f 109//128 119//128 120//128
f 109//128 120//128 121//128
f 109//128 121//128 114//128
f 114//128 121//128 115//128
f 117//128 122//128 112//128
f 112//128 122//128 111//128
f 111//128 122//128 123//128
f 111//128 123//128 124//128
f 111//128 124//128 110//128
f 110//128 124//128 118//128
f 120//141 8//141 121//141
f 121//142 8//142 4//142
f 3//143 121//143 4//143
f 121//144 3//144 115//144
f 48//145 115//145 3//145
f 47//146 115//146 48//146
f 115//147 47//147 116//147
f 44//148 116//148 47//148
f 41//149 116//149 44//149
f 116//150 41//150 117//150
f 37//151 117//151 41//151
f 34//152 117//152 37//152
f 117//153 34//153 122//153
f 31//154 122//154 34//154
f 27//155 122//155 31//155
f 122//156 27//156 123//156
f 125//157 123//157 27//157
f 25//158 123//158 125//158
f 123//159 25//159 124//159
f 23//160 124//160 25//160
f 126//161 124//161 23//161
f 124//162 126//162 118//162
f 14//163 118//163 126//163
f 118//164 14//164 119//164
f 127//165 119//165 14//165
f 119//166 127//166 120//166
f 120//167 127//167 8//167
f 128//168 33//168 129//168
f 129//169 33//169 35//169
f 130//170 42//170 131//170
f 131//171 42//171 43//171
f 132//172 24//172 133//172
f 133//173 24//173 26//173
f 134//174 135//174 136//174
f 136//175 135//175 137//175
f 138//176 139//176 140//176
f 140//177 139//177 141//177
f 142//178 51//178 143//178
f 143//179 51//179 2//179
f 45//180 131//180 43//180
f 131//181 45//181 144//181
f 144//182 45//182 145//182
f 144//183 145//183 59//183
f 46//184 59//184 145//184
f 99//185 40//185 146//185
f 146//186 40//186 39//186
f 146//187 39//187 147//187
f 39//188 148//188 147//188
f 147//189 148//189 130//189
f 130//190 148//190 42//190
f 149//191 150//191 129//191
f 149//192 129//192 35//192
f 150//193 149//194 36//195
f 150//193 36//195 102//196
f 38//197 102//197 36//197
f 96//198 95//198 151//198
f 151//199 95//199 152//199
f 151//200 152//200 128//200
f 128//201 152//201 33//201
f 28//202 153//202 133//202
f 28//203 133//203 26//203
f 153//204 28//204 29//204
f 153//205 29//205 98//205
f 92//206 22//206 154//206
f 154//207 22//207 21//207
f 154//208 21//208 132//208
f 132//209 21//209 24//209
f 155//210 136//210 137//210
f 136//211 155//211 156//211
f 156//212 155//212 19//212
f 156//213 19//213 94//213
f 20//214 94//214 19//214
f 89//215 88//215 157//215
f 157//216 88//216 158//216
f 157//217 158//218 134//219
f 134//219 158//218 135//220
f 12//221 140//221 141//221
f 140//222 12//222 159//222
f 159//223 12//223 160//223
f 159//224 160//224 91//224
f 13//225 91//225 160//225
f 53//226 7//226 161//226
f 7//227 162//227 161//227
f 161//228 162//228 163//228
f 163//229 162//230 138//231
f 138//231 162//230 139//232
f 1//233 164//233 143//233
f 1//234 143//234 2//234
f 164//235 1//236 165//237
f 164//235 165//237 166//238
f 6//239 55//239 166//239
f 6//240 166//240 165//240
f 57//241 56//241 50//241
f 57//242 50//242 167//242
f 50//243 168//243 167//243
f 167//244 168//244 142//244
f 142//245 168//245 51//245
f 157//246 74//246 89//246
f 73//247 74//247 157//247
f 134//248 73//248 157//248
f 134//249 136//249 72//249
f 134//250 72//250 73//250
f 75//251 90//251 74//251
f 90//252 75//252 91//252
f 74//253 90//253 89//253
f 71//254 72//254 156//254
f 156//255 72//255 136//255
f 71//256 156//256 94//256
f 75//257 76//257 159//257
f 159//258 76//258 140//258
f 75//259 159//259 91//259
f 94//260 93//260 71//260
f 71//261 93//261 70//261
f 93//262 92//262 70//262
f 140//263 76//263 77//263
f 138//264 140//264 77//264
f 154//265 70//265 92//265
f 69//266 70//266 154//266
f 69//267 154//267 132//267
f 53//268 161//268 78//268
f 163//269 78//269 161//269
f 77//270 78//270 163//270
f 77//271 163//271 138//271
f 69//272 132//272 133//272
f 68//273 69//273 133//273
f 55//274 54//274 80//274
f 80//275 54//275 78//275
f 54//276 53//276 78//276
f 67//277 68//277 153//277
f 153//278 68//278 133//278
f 98//279 67//279 153//279
f 67//280 98//280 66//280
f 80//281 79//281 164//281
f 164//282 79//282 143//282
f 80//283 164//283 166//283
f 166//284 55//284 80//284
f 98//285 97//285 66//285
f 97//286 96//286 65//286
f 97//287 65//287 66//287
f 79//288 81//288 142//288
f 79//289 142//289 143//289
f 151//290 65//290 96//290
f 64//291 65//291 151//291
f 64//292 151//292 128//292
f 167//293 82//293 57//293
f 81//294 82//294 167//294
f 142//295 81//295 167//295
f 128//296 129//296 63//296
f 64//297 128//297 63//297
f 59//298 58//298 83//298
f 58//299 57//299 82//299
f 58//300 82//300 83//300
f 61//301 63//301 150//301
f 150//302 63//303 129//303
f 61//304 150//304 102//304
f 62//305 61//305 102//305
f 84//306 85//306 144//306
f 144//307 85//307 131//307
f 59//308 84//308 144//308
f 83//309 84//309 59//309
f 62//310 102//310 101//310
f 87//311 62//311 99//311
f 99//312 62//312 101//312
f 85//313 86//313 130//313
f 85//314 130//314 131//314
f 146//315 87//315 99//315
f 147//316 87//316 146//316
f 86//317 87//317 147//317
f 130//318 86//318 147//318
f 137//319 19//319 155//319
f 15//320 17//320 135//320
f 137//321 135//321 17//321
f 19//322 137//322 17//322
f 15//323 135//323 158//323
f 15//324 158//324 88//324
f 15//325 88//325 16//325
f 32//326 152//326 95//326
f 33//327 152//327 32//327
f 95//328 30//328 32//328
f 13//329 160//329 12//329
f 10//330 12//330 141//330
f 35//331 36//331 149//331
f 141//332 139//332 9//332
f 141//333 9//333 10//333
f 38//334 40//334 100//334
f 9//335 162//335 7//335
f 162//336 9//336 139//336
f 39//337 42//337 148//337
f 165//338 1//338 6//338
f 46//339 145//339 45//339
f 56//340 49//340 50//340
f 51//341 168//341 50//341
f 8//342 127//342 11//342
f 23//343 18//343 126//343
f 126//344 18//344 14//344
f 25//345 125//345 27//345
f 127//346 14//346 11//346
