# Blender v3.2.1 OBJ File: ''
# www.blender.org
mtllib Hebeloben-5.mtl
o Drehmaschine_-_Hebel_oben-5_Drehmaschine_-_Hebel_oben-5.002
v 0.006054 0.005584 -0.007343
v 0.001606 0.001303 -0.003719
v 0.001683 0.000864 -0.003984
v 0.006135 0.005311 -0.007570
v 0.001539 0.000664 -0.004325
v 0.006003 0.005130 -0.007946
v 0.001267 0.000736 -0.004671
v 0.005732 0.005150 -0.008266
v 0.001005 0.000959 -0.004804
v 0.005397 0.005367 -0.008402
v 0.000732 0.001255 -0.004718
v 0.005151 0.005677 -0.008323
v 0.005083 0.006013 -0.008004
v 0.000624 0.001564 -0.004344
v 0.005214 0.006143 -0.007687
v 0.000845 0.001728 -0.003961
v 0.005444 0.006128 -0.007426
v 0.001250 0.001649 -0.003725
v 0.005759 0.005913 -0.007246
v 0.002265 0.001085 -0.002997
v 0.001197 0.000375 -0.005004
v 0.000971 0.000811 -0.005004
v 0.000465 0.001199 -0.005004
v 0.001248 0.002195 -0.003003
v 0.000637 0.002442 -0.003004
v 0.001848 0.001711 -0.002999
v -0.001527 0.002032 -0.002997
v -0.001088 0.000720 -0.005005
v -0.002066 0.001455 -0.003012
v -0.000360 0.001247 -0.005004
v -0.000751 0.002423 -0.003005
v 0.000046 0.002534 -0.003005
v -0.002403 0.000779 -0.003005
v -0.001264 -0.000173 -0.005004
v -0.002518 -0.000017 -0.003005
v -0.002375 -0.000809 -0.003005
v -0.001008 -0.000732 -0.005004
v -0.001988 -0.001515 -0.003005
v -0.000558 -0.001118 -0.005004
v -0.001398 -0.002062 -0.003005
v -0.000665 -0.002394 -0.003005
v 0.000240 -0.001217 -0.005004
v 0.000281 -0.002481 -0.003001
v 0.001411 -0.002062 -0.002994
v 0.000863 -0.000882 -0.005004
v 0.002219 -0.001162 -0.002987
v 0.001221 -0.000280 -0.005004
v 0.002519 0.000020 -0.002990
v -0.000310 -0.000033 0.000596
v -0.000136 -0.000265 0.000596
v 0.000174 -0.000221 0.000596
v -0.000255 0.000222 0.000596
v -0.000018 0.000332 0.000596
v 0.000224 0.000235 0.000596
v 0.000292 -0.000018 0.000596
v 0.000116 -0.000265 -0.000004
v 0.000303 0.000019 -0.000004
v 0.000104 0.000318 -0.000004
v -0.000244 0.000235 -0.000004
v -0.000312 -0.000018 -0.000004
v -0.000194 -0.000221 -0.000004
v -0.001490 0.002050 -0.000004
v -0.002056 0.001480 -0.000004
v -0.002415 0.000739 -0.000004
v -0.002516 -0.000059 -0.000004
v -0.002360 -0.000848 -0.000004
v -0.001962 -0.001547 -0.000004
v -0.001363 -0.002084 -0.000004
v 0.002402 0.000711 -0.000004
v 0.002062 0.001439 -0.000004
v 0.001508 0.002023 -0.000004
v 0.000798 0.002401 -0.000004
v 0.000004 0.002534 -0.000004
v -0.000790 0.002410 -0.000004
v -0.000624 -0.002404 -0.000004
v 0.000395 -0.002461 -0.000004
v 0.001504 -0.001988 -0.000004
v 0.002267 -0.001053 -0.000004
v 0.002494 -0.000088 -0.000004
v 0.007690 0.007367 -0.009264
v 0.007316 0.007404 -0.009651
v 0.007493 0.007719 -0.009047
v 0.005281 0.006426 -0.007510
v 0.004921 0.006436 -0.008157
v 0.004898 0.006216 -0.008543
v 0.005921 0.005008 -0.008519
v 0.006807 0.007903 -0.009403
v 0.007104 0.007953 -0.009049
v 0.007789 0.006906 -0.009473
v 0.006966 0.007277 -0.009928
v 0.007918 0.007270 -0.008854
v 0.007361 0.006822 -0.009908
v 0.006581 0.007621 -0.009753
v 0.007127 0.008029 -0.008528
v 0.007481 0.007793 -0.008299
v 0.006572 0.007163 -0.010057
v 0.006646 0.008125 -0.008758
v 0.007883 0.007319 -0.008282
v 0.008073 0.006868 -0.008580
v 0.008045 0.006496 -0.009049
v 0.007612 0.006311 -0.009735
v 0.006827 0.006709 -0.010143
v 0.006092 0.007597 -0.009732
v 0.006012 0.008012 -0.009057
v 0.007072 0.006099 -0.010030
v 0.006200 0.006782 -0.010160
v 0.006362 0.008146 -0.008401
v 0.006890 0.007982 -0.007978
v 0.007416 0.007611 -0.007782
v 0.007864 0.007000 -0.007838
v 0.008093 0.006564 -0.008296
v 0.008017 0.006050 -0.008870
v 0.007747 0.005854 -0.009340
v 0.005602 0.007090 -0.009820
v 0.005730 0.007779 -0.009256
v 0.007406 0.005768 -0.009658
v 0.006638 0.006115 -0.010125
v 0.005458 0.007287 -0.009554
v 0.005736 0.007950 -0.008354
v 0.006041 0.007965 -0.007935
v 0.006468 0.007848 -0.007630
v 0.007029 0.007537 -0.007402
v 0.007615 0.006900 -0.007454
v 0.007918 0.006310 -0.007819
v 0.007916 0.005788 -0.008317
v 0.007685 0.005478 -0.008902
v 0.005838 0.006358 -0.010054
v 0.005205 0.007326 -0.009172
v 0.005455 0.007747 -0.008774
v 0.007261 0.005333 -0.009356
v 0.006691 0.005384 -0.009710
v 0.006353 0.005665 -0.009943
v 0.007142 0.007022 -0.007161
v 0.007419 0.006223 -0.007270
v 0.007587 0.005795 -0.007611
v 0.005705 0.005921 -0.009856
v 0.005197 0.006615 -0.009553
v 0.005179 0.007492 -0.008534
v 0.005492 0.007644 -0.007973
v 0.005746 0.007408 -0.007423
v 0.006287 0.007411 -0.007215
v 0.007537 0.005427 -0.007999
v 0.007347 0.005148 -0.008635
v 0.006860 0.005057 -0.009146
v 0.006613 0.006807 -0.006981
v 0.006980 0.006446 -0.007026
v 0.005844 0.005335 -0.009463
v 0.005324 0.005805 -0.009446
v 0.004997 0.006332 -0.009164
v 0.004930 0.006794 -0.008856
v 0.004976 0.007065 -0.008338
v 0.005254 0.007215 -0.007793
v 0.006077 0.006958 -0.007060
v 0.007077 0.005098 -0.008102
v 0.006072 0.005065 -0.009136
v 0.005389 0.006887 -0.007431
v 0.006397 0.006288 -0.006967
v 0.006925 0.005777 -0.007204
v 0.007057 0.005331 -0.007649
v 0.006609 0.004923 -0.008364
v 0.006461 0.004947 -0.008855
v 0.005021 0.006807 -0.007984
v 0.005428 0.005396 -0.009020
v 0.005098 0.005747 -0.008791
v 0.005746 0.006480 -0.007141
v 0.006552 0.005622 -0.007223
v 0.006602 0.005132 -0.007770
vn 0.7432 -0.2451 0.6226
vn 0.7535 -0.2717 0.5986
vn 0.7326 -0.6773 0.0678
vn 0.7368 -0.6711 0.0825
vn 0.3954 -0.7864 -0.4745
vn 0.4442 -0.7887 -0.4250
vn -0.0821 -0.5799 -0.8106
vn -0.0581 -0.5945 -0.8020
vn -0.0581 -0.5944 -0.8020
vn -0.4891 -0.2047 -0.8479
vn -0.5043 -0.1838 -0.8437
vn -0.7759 0.3446 -0.5284
vn -0.7787 0.3545 -0.5177
vn -0.7061 0.7082 0.0007
vn -0.6761 0.7329 0.0759
vn -0.4352 0.7920 0.4282
vn -0.2264 0.7375 0.6362
vn -0.0025 0.6383 0.7698
vn 0.4979 0.1975 0.8444
vn 0.3373 0.3613 0.8693
vn 0.7245 0.4446 -0.5268
vn 0.7727 0.3429 -0.5342
vn 0.7689 0.3537 -0.5326
vn 0.7326 0.3792 -0.5653
vn 0.6935 0.5198 -0.4989
vn 0.4921 0.6439 -0.5859
vn 0.5213 0.6433 -0.5607
vn 0.3921 0.7616 -0.5159
vn 0.4529 0.7114 -0.5374
vn 0.3204 0.7914 -0.5206
vn 0.3193 0.7916 -0.5210
vn 0.3172 0.7920 -0.5217
vn 0.3162 0.7921 -0.5221
vn 0.5439 0.6698 -0.5055
vn 0.7165 0.4756 -0.5103
vn 0.5913 0.6002 -0.5386
vn -0.6172 0.5901 -0.5205
vn -0.4898 0.6768 -0.5495
vn -0.3874 0.7596 -0.5224
vn -0.1181 0.8458 -0.5203
vn 0.0493 0.8353 -0.5476
vn 0.1316 0.8368 -0.5315
vn 0.3456 0.7833 -0.5166
vn -0.7687 0.3775 -0.5164
vn -0.8225 0.1619 -0.5453
vn -0.8366 0.1209 -0.5343
vn -0.8427 -0.1525 -0.5164
vn -0.7666 -0.3511 -0.5377
vn -0.7461 -0.4086 -0.5257
vn -0.5542 -0.6461 -0.5248
vn -0.5747 -0.6199 -0.5342
vn -0.3532 -0.7799 -0.5167
vn -0.1037 -0.8358 -0.5391
vn -0.0754 -0.8440 -0.5311
vn 0.3013 -0.8038 -0.5129
vn 0.3986 -0.7393 -0.5426
vn 0.6417 -0.5721 -0.5108
vn 0.7204 -0.4298 -0.5443
vn 0.8353 -0.2136 -0.5065
vn 0.8381 0.0307 -0.5447
vn 0.8352 0.1964 -0.5137
vn 0.7845 0.3208 -0.5307
vn -0.0000 0.0000 1.0000
vn 0.8343 -0.5499 -0.0403
vn 0.8636 -0.5039 -0.0156
vn 0.9652 0.2592 0.0334
vn 0.8300 0.5506 -0.0895
vn 0.3744 0.9257 0.0537
vn -0.2321 0.9701 -0.0703
vn -0.4230 0.9060 0.0120
vn -0.9657 0.2595 -0.0121
vn -0.9780 0.2082 0.0095
vn -0.8636 -0.5041 -0.0088
vn -0.8636 -0.5040 -0.0088
vn -0.7996 -0.5997 0.0333
vn -0.1383 -0.9887 -0.0582
vn 0.1383 -0.9887 0.0582
vn -0.0003 0.0003 1.0000
vn 0.0007 0.0001 1.0000
vn -0.7307 0.6827 -0.0032
vn -0.8964 0.4432 0.0000
vn -0.8951 0.4458 -0.0007
vn -0.8991 0.4377 0.0016
vn -0.9003 0.4352 0.0023
vn -0.9897 0.1430 -0.0021
vn -0.9920 0.1261 0.0023
vn -0.9840 -0.1781 -0.0021
vn -0.9809 -0.1943 0.0023
vn -0.8769 -0.4807 -0.0019
vn -0.8690 -0.4948 0.0023
vn -0.6799 -0.7333 -0.0019
vn -0.6675 -0.7446 0.0023
vn -0.4126 -0.9109 -0.0019
vn -0.3974 -0.9177 0.0024
vn -0.0916 -0.9958 -0.0021
vn -0.0558 -0.9984 0.0088
vn 0.3477 -0.9376 -0.0070
vn 0.3923 -0.9198 0.0106
vn 0.7441 -0.6680 -0.0066
vn 0.7747 -0.6322 0.0106
vn 0.9692 -0.2460 -0.0066
vn 0.9734 -0.2293 -0.0002
vn 0.9933 0.1147 0.0125
vn 0.9725 0.2322 -0.0156
vn 0.9060 0.4231 0.0114
vn 0.8322 0.5544 -0.0091
vn 0.7252 0.6884 0.0106
vn 0.6285 0.7777 -0.0096
vn 0.4699 0.8827 0.0099
vn 0.3748 0.9271 -0.0074
vn 0.1574 0.9875 0.0045
vn 0.1544 0.9880 0.0053
vn 0.1634 0.9866 0.0030
vn 0.1660 0.9861 0.0023
vn -0.1379 0.9904 -0.0019
vn -0.1546 0.9880 0.0023
vn -0.4515 0.8923 -0.0015
vn -0.4500 0.8930 -0.0020
vn -0.4556 0.8902 -0.0002
vn -0.4573 0.8893 0.0003
vn -0.7096 0.7046 0.0045
vn 0.0002 0.0001 -1.0000
vn 0.0003 -0.0004 -1.0000
vn 0.0004 -0.0001 -1.0000
vn 0.0000 0.0000 -1.0000
vn 0.0005 0.0005 -1.0000
vn 0.0007 0.0007 -1.0000
vn 0.0003 0.0001 -1.0000
vn 0.5841 0.6371 -0.5028
vn -0.5159 -0.0394 0.8557
vn -0.7379 -0.2226 0.6371
vn -0.8698 -0.0956 0.4841
vn -0.8807 -0.1806 0.4379
vn -0.9351 -0.2813 0.2155
vn -0.9165 -0.3570 0.1804
vn -0.5561 -0.8296 0.0508
vn -0.3535 -0.9033 0.2429
vn 0.4604 0.7249 -0.5125
vn 0.4529 0.7469 -0.4868
vn 0.6722 0.4212 -0.6088
vn 0.3064 0.6563 -0.6895
vn 0.7534 0.5949 -0.2801
vn 0.8484 0.3595 -0.3885
vn 0.6315 0.3536 -0.6900
vn 0.4825 0.3846 -0.7869
vn 0.2692 0.6582 -0.7031
vn 0.5113 0.8468 -0.1465
vn 0.5854 0.8076 -0.0708
vn 0.7358 0.6749 -0.0552
vn 0.1128 0.5479 -0.8289
vn 0.1757 0.9434 -0.2814
vn 0.2621 0.9532 -0.1509
vn 0.7624 0.6471 -0.0081
vn 0.9272 0.3736 0.0254
vn 0.9511 0.2121 -0.2244
vn 0.9157 0.2325 -0.3277
vn 0.8474 -0.0202 -0.5305
vn 0.6990 0.1021 -0.7078
vn 0.3421 0.2577 -0.9036
vn 0.2179 0.2979 -0.9294
vn -0.0625 0.5523 -0.8313
vn -0.0647 0.7977 -0.5996
vn -0.1147 0.8400 -0.5303
vn -0.0126 0.9444 -0.3285
vn 0.4950 -0.0518 -0.8673
vn 0.4027 -0.0068 -0.9153
vn 0.0522 0.2136 -0.9755
vn -0.2008 0.4345 -0.8780
vn -0.1069 0.9839 -0.1433
vn 0.1623 0.9842 0.0713
vn 0.1751 0.9716 0.1589
vn 0.4174 0.8722 0.2551
vn 0.4511 0.8225 0.3463
vn 0.7191 0.6222 0.3093
vn 0.7545 0.5174 0.4038
vn 0.9398 0.2574 0.2248
vn 0.9430 0.2586 0.2093
vn 0.9979 0.0074 -0.0645
vn 0.9947 -0.0859 -0.0559
vn 0.8832 -0.2225 -0.4129
vn 0.8528 -0.1721 -0.4931
vn -0.2773 0.4177 -0.8652
vn -0.2929 0.7985 -0.5259
vn 0.6841 -0.3494 -0.6402
vn 0.5480 -0.3168 -0.7742
vn 0.2102 -0.0948 -0.9731
vn 0.0238 -0.0363 -0.9991
vn -0.4682 0.5697 -0.6754
vn -0.4808 0.6338 -0.6059
vn -0.3016 0.9529 -0.0328
vn -0.2830 0.9436 0.1716
vn -0.0003 0.9329 0.3602
vn -0.0021 0.9327 0.3608
vn -0.0021 0.9328 0.3604
vn 0.0016 0.9329 0.3601
vn 0.2125 0.7978 0.5642
vn 0.3583 0.7791 0.5144
vn 0.5717 0.4701 0.6725
vn 0.6879 0.4537 0.5666
vn 0.9206 0.0826 0.3817
vn 0.9475 -0.2230 0.2292
vn 0.9719 -0.2243 0.0713
vn 0.8361 -0.4697 -0.2834
vn -0.4318 0.1456 -0.8901
vn -0.6165 0.6288 -0.4739
vn -0.6460 0.6910 -0.3243
vn -0.5146 0.8229 -0.2407
vn -0.4710 0.8757 -0.1061
vn 0.8256 0.0798 0.5586
vn 0.8641 -0.4972 -0.0777
vn 0.6676 -0.6096 -0.4274
vn 0.6315 -0.5731 -0.5222
vn 0.3781 -0.6097 -0.6967
vn 0.3408 -0.5293 -0.7770
vn 0.1886 -0.4829 -0.8551
vn 0.1739 -0.4617 -0.8698
vn -0.1676 -0.2759 -0.9465
vn -0.1285 -0.1359 -0.9824
vn 0.5518 0.4494 0.7025
vn 0.7421 -0.0318 0.6696
vn 0.8370 -0.3799 0.3939
vn -0.6442 -0.1433 -0.7513
vn -0.5986 0.0624 -0.7986
vn -0.7379 0.2868 -0.6110
vn -0.7793 0.3030 -0.5485
vn -0.7519 0.6302 -0.1936
vn -0.6461 0.7603 0.0667
vn -0.6576 0.7344 0.1677
vn -0.4931 0.8051 0.3296
vn -0.2505 0.7240 0.6428
vn -0.2503 0.7240 0.6428
vn -0.2618 0.7196 0.6432
vn -0.2633 0.7189 0.6433
vn 0.0713 0.6707 0.7383
vn 0.1463 0.4449 0.8835
vn 0.5396 0.0728 0.8388
vn 0.7390 -0.2187 0.6372
vn 0.7847 -0.4968 0.3707
vn 0.7264 -0.6831 0.0755
vn 0.7237 -0.6849 0.0841
vn 0.7237 -0.6850 0.0839
vn 0.7266 -0.6830 0.0747
vn 0.5570 -0.7862 -0.2678
vn 0.2652 -0.7975 -0.5419
vn -0.2535 -0.3337 -0.9079
vn -0.4573 0.7212 0.5204
vn 0.1345 0.4203 0.8974
vn 0.2636 0.1492 0.9530
vn 0.5072 0.0587 0.8598
vn 0.4451 -0.8533 -0.2716
vn -0.3287 -0.5796 -0.7457
vn -0.6889 -0.2000 -0.6967
vn -0.8053 -0.1999 -0.5581
vn -0.9165 0.1218 -0.3811
vn -0.8903 0.2232 -0.3970
vn -0.9103 0.3941 -0.1267
vn -0.9169 0.3757 -0.1343
vn -0.8131 0.5135 0.2742
vn -0.7819 0.5538 0.2862
vn -0.6248 0.5703 0.5333
vn -0.3243 0.4375 0.8387
vn -0.0427 0.3413 0.9390
vn 0.5414 -0.8174 0.1967
vn -0.0151 -0.8670 -0.4981
vn -0.1236 -0.8048 -0.5806
vn -0.1518 -0.7329 -0.6632
vn -0.5238 -0.5578 -0.6439
vn -0.6442 0.4310 0.6319
vn 0.1051 -0.0173 0.9943
vn 0.3602 -0.2671 0.8938
vn 0.4833 -0.4224 0.7668
vn 0.4443 -0.5628 0.6970
vn 0.5299 -0.6481 0.5470
vn 0.4641 -0.7795 0.4207
vn 0.3154 -0.9464 0.0700
vn 0.2645 -0.9610 -0.0802
vn 0.1923 -0.9756 -0.1059
vn -0.0141 -0.9287 -0.3705
vn -0.9860 -0.0329 -0.1637
vn -0.9975 0.0674 0.0203
vn -0.9946 0.0975 0.0357
vn -0.8738 0.3331 0.3544
vn -0.4758 0.3129 0.8220
vn -0.1241 0.0781 0.9892
vn 0.1682 -0.2664 0.9491
vn -0.5983 -0.6465 -0.4734
vn -0.7854 -0.5313 -0.3176
vn -0.8711 -0.3620 -0.3318
vn -0.9346 -0.2916 -0.2039
vn -0.9604 0.1517 0.2337
vn -0.8250 0.2293 0.5165
vn -0.4814 0.1877 0.8562
vn -0.2552 0.0123 0.9668
vn 0.0931 -0.3374 0.9367
vn 0.2341 -0.6506 0.7224
vn 0.1410 -0.7313 0.6673
vn 0.2532 -0.8560 0.4508
vn 0.1636 -0.9297 0.3300
vn -0.1203 -0.9927 -0.0125
vn -0.1952 -0.9711 -0.1375
vn -0.4783 -0.8105 -0.3381
vn -0.8731 0.0095 0.4875
vn -0.8345 0.1028 0.5413
vn -0.6224 0.0117 0.7826
vn -0.3034 -0.1798 0.9358
vn -0.1689 -0.3868 0.9066
vn -0.4765 -0.8572 -0.1954
vn -0.7490 -0.6589 -0.0691
vn -0.7847 -0.6198 -0.0035
vn -0.9106 -0.4111 0.0416
vn -0.6026 -0.1581 0.7822
vn -0.1822 -0.4248 0.8867
vn -0.1295 -0.6570 0.7427
vn -0.0002 -0.7453 0.6667
vn -0.1350 -0.8736 0.4676
vn -0.0943 -0.9392 0.3303
vn -0.1709 -0.9584 0.2287
vn -0.5736 -0.8163 -0.0679
usemtl None.010
s 1
f 1//1 2//1 3//1
f 1//2 3//2 4//2
f 5//3 6//3 4//3
f 5//4 4//4 3//4
f 7//5 8//5 5//5
f 5//6 8//6 6//6
f 9//7 10//7 7//7
f 7//8 10//9 8//8
f 10//10 9//10 11//10
f 10//11 11//11 12//11
f 12//12 11//12 13//12
f 13//13 11//13 14//13
f 13//14 14//14 15//14
f 15//15 14//15 16//15
f 16//16 17//16 15//16
f 18//17 17//17 16//17
f 17//18 18//18 19//18
f 1//19 19//19 2//19
f 2//20 19//20 18//20
f 3//21 2//21 20//21
f 21//22 7//22 5//22
f 20//23 5//23 3//23
f 22//24 7//24 21//24
f 22//25 9//25 7//25
f 23//26 11//26 22//26
f 22//27 11//27 9//27
f 23//28 14//28 11//28
f 24//29 18//29 16//29
f 24//30 16//31 25//32
f 25//32 16//31 14//33
f 26//34 18//34 24//34
f 20//35 2//35 26//35
f 26//36 2//36 18//36
f 27//37 28//37 29//37
f 28//38 27//38 30//38
f 30//39 27//39 31//39
f 30//40 31//40 32//40
f 30//41 32//41 23//41
f 23//42 32//42 25//42
f 23//43 25//43 14//43
f 29//44 28//44 33//44
f 33//45 28//45 34//45
f 33//46 34//46 35//46
f 35//47 34//47 36//47
f 36//48 34//48 37//48
f 36//49 37//49 38//49
f 38//50 37//50 39//50
f 38//51 39//51 40//51
f 40//52 39//52 41//52
f 41//53 39//53 42//53
f 41//54 42//54 43//54
f 43//55 42//55 44//55
f 44//56 42//56 45//56
f 44//57 45//57 46//57
f 46//58 45//58 47//58
f 46//59 47//59 48//59
f 48//60 47//60 21//60
f 48//61 21//61 20//61
f 20//62 21//62 5//62
f 49//63 50//63 51//63
f 51//63 52//63 49//63
f 51//63 53//63 52//63
f 51//63 54//63 53//63
f 51//63 55//63 54//63
f 51//64 56//64 57//64
f 51//65 57//65 55//65
f 55//66 57//66 54//66
f 54//67 57//67 58//67
f 54//68 58//68 53//68
f 53//69 58//69 59//69
f 53//70 59//70 52//70
f 52//71 59//71 60//71
f 52//72 60//72 49//72
f 49//73 60//74 61//74
f 49//75 61//75 50//75
f 50//76 61//76 56//76
f 50//77 56//77 51//77
f 59//63 62//63 63//63
f 59//63 63//63 64//63
f 59//63 64//63 60//63
f 60//63 64//63 65//63
f 60//63 65//63 66//63
f 60//63 66//63 61//63
f 61//63 66//63 67//63
f 61//63 67//63 68//63
f 57//63 69//63 70//78
f 57//63 70//78 58//63
f 58//63 70//78 71//63
f 58//63 71//63 72//63
f 58//63 72//63 73//63
f 58//63 73//63 74//79
f 58//63 74//79 59//63
f 59//63 74//79 62//63
f 68//63 75//63 61//63
f 61//63 75//63 56//63
f 56//63 75//63 76//63
f 56//63 76//63 77//63
f 56//63 77//63 78//63
f 56//63 78//63 57//63
f 57//63 78//63 79//63
f 57//63 79//63 69//63
f 27//80 29//80 63//80
f 63//81 29//82 33//83
f 63//81 33//83 64//84
f 64//85 33//85 35//85
f 64//86 35//86 65//86
f 65//87 35//87 36//87
f 65//88 36//88 66//88
f 66//89 36//89 38//89
f 66//90 38//90 67//90
f 67//91 38//91 40//91
f 67//92 40//92 68//92
f 68//93 40//93 41//93
f 68//94 41//94 75//94
f 75//95 41//95 43//95
f 75//96 43//96 76//96
f 76//97 43//97 44//97
f 76//98 44//98 77//98
f 77//99 44//99 46//99
f 77//100 46//100 78//100
f 78//101 46//101 48//101
f 78//102 48//102 79//102
f 79//103 48//103 69//103
f 69//104 48//104 20//104
f 69//105 20//105 70//105
f 70//106 20//106 26//106
f 70//107 26//107 71//107
f 71//108 26//108 24//108
f 71//109 24//109 72//109
f 72//110 24//110 25//110
f 72//111 25//112 32//113
f 72//111 32//113 73//114
f 73//115 32//115 31//115
f 73//116 31//116 74//116
f 74//117 31//118 27//119
f 74//117 27//119 62//120
f 62//121 27//121 63//121
f 23//122 34//123 28//124
f 37//125 34//123 23//122
f 23//122 39//125 37//125
f 42//125 39//125 23//122
f 23//122 45//125 42//125
f 23//122 47//125 45//125
f 23//122 21//126 47//125
f 23//122 22//127 21//126
f 28//124 30//128 23//122
f 80//129 81//129 82//129
f 17//130 19//130 83//130
f 17//131 83//131 15//131
f 15//132 83//132 84//132
f 15//133 84//133 13//133
f 13//134 84//134 85//134
f 13//135 85//135 12//135
f 86//136 8//136 10//136
f 8//137 86//137 6//137
f 81//138 87//138 82//138
f 82//139 87//139 88//139
f 80//140 89//140 81//140
f 81//141 90//141 87//141
f 82//142 91//142 80//142
f 80//143 91//143 89//143
f 81//144 89//144 92//144
f 81//145 92//145 90//145
f 90//146 93//146 87//146
f 88//147 94//147 82//147
f 82//148 94//148 95//148
f 82//149 95//149 91//149
f 90//150 96//150 93//150
f 87//151 97//151 88//151
f 88//152 97//152 94//152
f 95//153 98//153 91//153
f 91//154 98//154 99//154
f 91//155 99//155 100//155
f 91//156 100//156 89//156
f 89//157 100//157 101//157
f 89//158 101//158 92//158
f 92//159 102//159 90//159
f 90//160 102//160 96//160
f 96//161 103//161 93//161
f 93//162 103//162 87//162
f 87//163 103//163 104//163
f 87//164 104//164 97//164
f 101//165 105//165 92//165
f 92//166 105//166 102//166
f 102//167 106//167 96//167
f 96//168 106//168 103//168
f 104//169 107//169 97//169
f 97//170 107//170 94//170
f 94//171 107//171 108//171
f 94//172 108//172 95//172
f 95//173 108//173 109//173
f 95//174 109//174 98//174
f 98//175 109//175 110//175
f 98//176 110//176 111//176
f 98//177 111//177 99//177
f 99//178 111//178 100//178
f 100//179 111//179 112//179
f 100//180 112//180 113//180
f 100//181 113//181 101//181
f 106//182 114//182 103//182
f 103//183 115//183 104//183
f 113//184 116//184 101//184
f 101//185 116//185 105//185
f 105//186 117//186 102//186
f 102//187 117//187 106//187
f 114//188 118//188 103//188
f 103//189 118//189 115//189
f 104//190 119//190 107//190
f 107//191 119//191 120//191
f 107//192 120//193 121//194
f 107//192 121//194 108//195
f 108//196 121//196 122//196
f 108//197 122//197 109//197
f 109//198 122//198 123//198
f 109//199 123//199 110//199
f 110//200 124//200 111//200
f 111//201 124//201 125//201
f 111//202 125//202 112//202
f 112//203 126//203 113//203
f 106//204 127//204 114//204
f 118//205 128//205 115//205
f 115//206 128//206 129//206
f 115//207 129//207 104//207
f 104//208 129//208 119//208
f 110//209 123//209 124//209
f 112//210 125//210 126//210
f 113//211 126//211 130//211
f 113//212 130//212 116//212
f 116//213 130//213 131//213
f 116//214 131//214 105//214
f 105//215 131//215 132//215
f 105//216 132//216 117//216
f 117//217 132//217 127//217
f 117//218 127//218 106//218
f 122//219 133//219 123//219
f 123//220 134//220 124//220
f 124//221 135//221 125//221
f 127//222 136//222 137//222
f 127//223 137//223 114//223
f 114//224 137//224 118//224
f 118//225 137//225 128//225
f 128//226 138//226 129//226
f 129//227 138//227 119//227
f 119//228 138//228 139//228
f 119//229 139//229 120//229
f 120//230 140//231 141//232
f 120//230 141//232 121//233
f 121//234 141//234 122//234
f 122//235 141//235 133//235
f 133//236 134//236 123//236
f 124//237 134//237 135//237
f 135//238 142//238 125//238
f 125//239 142//240 143//241
f 125//239 143//241 126//242
f 126//243 143//243 130//243
f 130//244 144//244 131//244
f 132//245 136//245 127//245
f 139//246 140//246 120//246
f 141//247 145//247 133//247
f 133//248 145//248 146//248
f 133//249 146//249 134//249
f 143//250 144//250 130//250
f 132//251 147//251 136//251
f 136//252 148//252 137//252
f 137//253 148//253 149//253
f 137//254 149//254 150//254
f 137//255 150//255 128//255
f 128//256 150//256 151//256
f 128//257 151//257 138//257
f 138//258 151//258 152//258
f 138//259 152//259 139//259
f 139//260 152//260 140//260
f 141//261 140//261 153//261
f 141//262 153//262 145//262
f 142//263 154//263 143//263
f 144//264 155//264 131//264
f 131//265 155//265 147//265
f 131//266 147//266 132//266
f 147//267 148//267 136//267
f 152//268 156//268 140//268
f 145//269 157//269 146//269
f 146//270 158//270 134//270
f 134//271 158//271 135//271
f 135//272 158//272 159//272
f 135//273 159//273 142//273
f 142//274 159//274 154//274
f 154//275 160//275 143//275
f 143//276 160//276 144//276
f 144//277 160//277 161//277
f 144//278 161//278 155//278
f 149//279 85//279 150//279
f 150//280 85//280 84//280
f 150//281 84//281 151//281
f 151//282 162//282 152//282
f 140//283 156//283 153//283
f 153//284 157//284 145//284
f 146//285 157//285 158//285
f 147//286 163//286 148//286
f 163//287 164//287 148//287
f 148//288 164//288 149//288
f 149//289 164//289 85//289
f 151//290 84//290 162//290
f 162//291 156//291 152//291
f 156//292 165//292 153//292
f 153//293 165//293 157//293
f 157//294 166//294 158//294
f 158//295 166//295 159//295
f 159//296 166//296 167//296
f 159//297 167//297 154//297
f 154//298 167//298 160//298
f 160//299 86//299 161//299
f 161//300 86//300 155//300
f 155//301 163//301 147//301
f 162//302 84//302 83//302
f 162//303 83//303 156//303
f 156//304 83//304 165//304
f 165//305 19//305 157//305
f 157//306 19//306 166//306
f 155//307 86//307 163//307
f 163//308 10//308 164//308
f 164//309 10//309 12//309
f 164//310 12//310 85//310
f 165//311 83//311 19//311
f 19//312 1//312 166//312
f 166//313 1//313 4//313
f 166//314 4//314 167//314
f 167//315 4//315 6//315
f 167//316 6//316 160//316
f 160//317 6//317 86//317
f 163//318 86//318 10//318
