# Blender v3.2.1 OBJ File: ''
# www.blender.org
mtllib Hebeloben-7.mtl
o Drehmaschine_-_Hebel_oben-7_Drehmaschine_-_Hebel_oben-7.002
v -0.000536 0.007538 -0.008123
v -0.000467 0.003861 -0.001936
v -0.000654 0.007789 -0.007978
v -0.000644 0.004131 -0.001702
v -0.000597 0.004469 -0.001493
v -0.000553 0.008176 -0.007754
v -0.000151 0.004841 -0.001385
v -0.000210 0.008399 -0.007630
v 0.000301 0.008385 -0.007636
v 0.000393 0.004706 -0.001411
v 0.000648 0.008005 -0.007851
v 0.000642 0.004370 -0.001544
v 0.000634 0.007714 -0.008028
v 0.000602 0.003987 -0.001816
v 0.000461 0.007452 -0.008180
v 0.000259 0.003751 -0.002047
v 0.000120 0.007301 -0.008267
v -0.000277 0.007339 -0.008242
v -0.000140 0.003731 -0.002068
v -0.001232 0.003037 -0.002192
v -0.000327 0.003036 -0.002501
v -0.000422 0.005030 -0.001212
v 0.000585 0.005032 -0.001146
v 0.000647 0.003029 -0.002432
v 0.001254 0.003030 -0.002174
v 0.002494 0.003024 -0.000355
v 0.001253 0.005031 0.000281
v 0.002435 0.003044 0.000632
v 0.001153 0.005030 -0.000526
v 0.002221 0.003031 -0.001180
v 0.001737 0.003031 -0.001822
v 0.002012 0.003031 0.001493
v 0.000749 0.005030 0.001019
v 0.001585 0.003030 0.001928
v 0.000852 0.003020 0.002366
v -0.000018 0.005030 0.001260
v -0.000091 0.003031 0.002497
v -0.000880 0.003031 0.002338
v -0.000607 0.005030 0.001086
v -0.001416 0.003030 0.002049
v -0.001053 0.005030 0.000694
v -0.001869 0.003031 0.001658
v -0.002301 0.003031 0.000980
v -0.001264 0.005030 -0.000082
v -0.002464 0.003030 0.000392
v -0.002496 0.003031 -0.000205
v -0.002306 0.003031 -0.000986
v -0.001019 0.005030 -0.000745
v -0.001877 0.003031 -0.001667
v -0.000136 -0.000570 0.000271
v -0.000293 -0.000570 0.000063
v -0.000234 -0.000570 -0.000220
v 0.000318 -0.000570 -0.000055
v 0.000176 -0.000570 0.000252
v 0.000093 -0.000570 -0.000309
v -0.000289 0.000030 -0.000107
v 0.000000 0.000030 -0.000330
v 0.000315 0.000030 -0.000073
v 0.000170 0.000030 0.000262
v -0.000209 0.000030 0.000227
v 0.002519 0.000030 -0.000160
v 0.002370 0.000030 0.000819
v 0.001986 0.000030 0.001526
v 0.001398 0.000030 0.002075
v 0.000667 0.000030 0.002409
v -0.000133 0.000030 0.002495
v -0.001123 0.000030 0.002246
v -0.001030 0.000030 -0.002308
v -0.000061 0.000030 -0.002515
v 0.000736 0.000030 -0.002407
v 0.001637 0.000030 -0.001929
v 0.002240 0.000030 -0.001142
v -0.001897 0.000030 0.001627
v -0.002403 0.000030 0.000740
v -0.002492 0.000030 -0.000247
v -0.002289 0.000030 -0.001025
v -0.001849 0.000030 -0.001698
v -0.000238 0.009239 -0.010671
v -0.000053 0.009750 -0.010341
v 0.000207 0.009346 -0.010622
v 0.000183 0.007167 -0.008465
v 0.000838 0.007501 -0.008339
v 0.000745 0.008563 -0.007766
v -0.000175 0.008641 -0.007596
v -0.000767 0.008542 -0.007788
v 0.000460 0.009588 -0.010399
v 0.000384 0.008757 -0.010784
v 0.000603 0.009136 -0.010601
v -0.000281 0.008726 -0.010788
v -0.000709 0.008928 -0.010627
v -0.000789 0.009414 -0.010366
v -0.000417 0.009840 -0.010152
v 0.000143 0.010060 -0.009903
v 0.000727 0.009824 -0.009969
v 0.000898 0.009447 -0.010245
v 0.001114 0.008899 -0.010361
v 0.000218 0.008215 -0.010780
v 0.000867 0.008403 -0.010572
v -0.000424 0.008167 -0.010718
v -0.000948 0.008378 -0.010510
v -0.001141 0.009433 -0.010018
v -0.000614 0.009970 -0.009803
v 0.000375 0.010165 -0.009461
v 0.001183 0.009546 -0.009806
v -0.001203 0.008800 -0.010260
v -0.000377 0.010161 -0.009376
v 0.000992 0.009874 -0.009322
v 0.001437 0.009120 -0.009773
v 0.000180 0.007681 -0.010537
v -0.001202 0.009692 -0.009323
v -0.000821 0.009970 -0.009373
v 0.001399 0.008437 -0.010022
v 0.000884 0.007861 -0.010363
v -0.000541 0.007722 -0.010459
v -0.001414 0.008542 -0.010012
v -0.001485 0.009205 -0.009454
v 0.000105 0.010209 -0.009035
v 0.000879 0.009909 -0.008816
v 0.001312 0.009543 -0.009157
v -0.001109 0.007708 -0.009994
v -0.000641 0.010018 -0.008729
v 0.000219 0.010000 -0.008411
v 0.001550 0.009079 -0.009085
v 0.001583 0.008431 -0.009577
v 0.001366 0.007826 -0.009661
v 0.000871 0.007533 -0.010066
v 0.000232 0.007326 -0.010185
v -0.000384 0.007234 -0.010008
v -0.000763 0.007487 -0.010091
v -0.001457 0.008126 -0.009724
v -0.001601 0.008703 -0.009390
v -0.001167 0.009626 -0.008735
v -0.000138 0.010090 -0.008620
v 0.001239 0.009418 -0.008544
v -0.001523 0.008908 -0.008742
v 0.000768 0.009694 -0.008307
v 0.001617 0.008400 -0.009063
v 0.001033 0.007368 -0.009472
v 0.000498 0.007091 -0.009579
v 0.000118 0.007103 -0.009804
v -0.000921 0.007278 -0.009457
v -0.001424 0.007849 -0.009398
v -0.001599 0.008443 -0.008985
v -0.001223 0.009258 -0.008361
v -0.000527 0.009735 -0.008161
v 0.000256 0.009675 -0.008028
v 0.001417 0.008927 -0.008497
v 0.000516 0.009336 -0.007852
v 0.001045 0.009068 -0.008062
v 0.001448 0.008288 -0.008518
v 0.001302 0.007706 -0.008774
v -0.000142 0.006985 -0.009330
v -0.001250 0.007623 -0.008897
v -0.001397 0.008008 -0.008637
v 0.001202 0.008590 -0.008120
v 0.000853 0.007243 -0.008915
v -0.000837 0.007221 -0.009011
v -0.001314 0.008503 -0.008278
v -0.001094 0.008881 -0.008064
v -0.000619 0.009145 -0.007807
v -0.000059 0.009244 -0.007724
v 0.000154 0.007006 -0.008942
v -0.000388 0.007090 -0.008774
v 0.000393 0.008880 -0.007668
v 0.001082 0.008124 -0.008099
v -0.000833 0.007402 -0.008502
v -0.001106 0.008024 -0.008163
vn -0.9270 -0.3268 -0.1838
vn -0.8926 -0.3900 -0.2260
vn -0.9756 0.1918 0.1067
vn -0.9932 0.0996 0.0596
vn -0.6431 0.6609 0.3867
vn -0.5960 0.6953 0.4017
vn 0.0284 0.8686 0.4946
vn 0.2317 0.8390 0.4924
vn 0.7831 0.5402 0.3081
vn 0.8201 0.4954 0.2864
vn 0.9992 -0.0360 -0.0198
vn 0.9963 -0.0755 -0.0402
vn 0.8677 -0.4282 -0.2523
vn 0.6816 -0.6362 -0.3615
vn 0.4540 -0.7694 -0.4493
vn -0.1133 -0.8589 -0.4995
vn 0.0705 -0.8656 -0.4957
vn -0.4792 -0.7624 -0.4349
vn -0.6670 -0.6437 -0.3751
vn -0.3294 0.5282 -0.7826
vn -0.2822 0.5143 -0.8099
vn -0.2835 0.5152 -0.8088
vn -0.2781 0.5115 -0.8130
vn -0.2772 0.5109 -0.8137
vn -0.2013 0.4877 -0.8495
vn 0.1075 0.5885 -0.8013
vn 0.0451 0.7080 -0.7047
vn 0.2574 0.5141 -0.8182
vn 0.1830 0.5374 -0.8232
vn 0.3329 0.5207 -0.7862
vn 0.3337 0.5210 -0.7856
vn 0.3355 0.5217 -0.7844
vn 0.3364 0.5221 -0.7837
vn 0.0649 0.4965 -0.8656
vn -0.1171 0.5479 -0.8283
vn 0.0189 0.5252 -0.8508
vn 0.8555 0.5161 0.0407
vn 0.8310 0.5465 -0.1042
vn 0.8123 0.5203 -0.2637
vn 0.6773 0.5291 -0.5112
vn 0.6180 0.5466 -0.5651
vn 0.5022 0.5219 -0.6896
vn 0.2865 0.5117 -0.8100
vn 0.7628 0.5213 0.3826
vn 0.6903 0.5481 0.4722
vn 0.6066 0.5248 0.5971
vn 0.4337 0.5166 0.7383
vn 0.2513 0.5475 0.7982
vn 0.1236 0.5189 0.8459
vn -0.1684 0.5231 0.8355
vn -0.2396 0.5387 0.8077
vn -0.4048 0.5244 0.7490
vn -0.5568 0.5327 0.6374
vn -0.5589 0.5323 0.6359
vn -0.5529 0.5337 0.6399
vn -0.5510 0.5342 0.6411
vn -0.7226 0.5165 0.4594
vn -0.8127 0.5391 0.2212
vn -0.8130 0.5389 0.2206
vn -0.8117 0.5397 0.2233
vn -0.8114 0.5399 0.2240
vn -0.8516 0.5221 0.0471
vn -0.8281 0.5229 -0.2018
vn -0.7880 0.5424 -0.2912
vn -0.7228 0.5201 -0.4550
vn -0.5222 0.5317 -0.6668
vn -0.5352 0.5378 -0.6514
vn -0.0807 0.4659 -0.8811
vn 0.0000 -1.0000 0.0000
vn -0.9773 -0.0514 -0.2053
vn -0.6085 0.0923 -0.7882
vn -0.2619 -0.0743 -0.9622
vn 0.6298 0.0713 -0.7735
vn 0.7477 -0.0155 -0.6638
vn 0.9176 0.0165 0.3972
vn 0.9081 0.0024 0.4188
vn 0.0599 -0.0151 0.9981
vn -0.0901 0.0614 0.9940
vn -0.7974 -0.0524 0.6012
vn -0.9695 0.0727 0.2339
vn -0.0000 -1.0000 0.0003
vn -0.0004 -1.0000 -0.0002
vn 0.9982 0.0122 0.0594
vn 0.9886 -0.0118 0.1502
vn 0.8975 0.0080 0.4410
vn 0.8785 -0.0021 0.4777
vn 0.7132 0.0016 0.7010
vn 0.6824 -0.0067 0.7309
vn 0.5128 0.0101 0.8584
vn 0.4157 -0.0123 0.9094
vn 0.1380 0.0058 0.9904
vn 0.1064 -0.0023 0.9943
vn -0.1975 0.0021 0.9803
vn -0.2437 -0.0102 0.9698
vn -0.4749 0.0114 0.8800
vn -0.6525 -0.0140 0.7577
vn -0.6249 -0.0028 0.7807
vn -0.8439 0.0020 0.5365
vn -0.8682 -0.0101 0.4961
vn -0.9636 0.0114 0.2671
vn -0.9984 -0.0140 0.0543
vn -0.9959 -0.0026 0.0903
vn -0.9715 0.0020 -0.2369
vn -0.9674 -0.0023 -0.2533
vn -0.8465 0.0020 -0.5325
vn -0.8374 -0.0023 -0.5466
vn -0.6313 0.0021 -0.7755
vn -0.5969 -0.0092 -0.8022
vn -0.3228 0.0144 -0.9464
vn -0.2095 -0.0138 -0.9777
vn 0.0704 0.0112 -0.9975
vn 0.1346 -0.0043 -0.9909
vn 0.3912 0.0039 -0.9203
vn 0.4686 -0.0123 -0.8833
vn 0.5893 0.0092 -0.8078
vn 0.7970 -0.0044 -0.6040
vn 0.7980 -0.0050 -0.6027
vn 0.7945 -0.0031 -0.6073
vn 0.7936 -0.0026 -0.6085
vn 0.9495 0.0021 -0.3138
vn 0.9619 -0.0098 -0.2733
vn -0.0004 1.0000 0.0007
vn -0.0005 1.0000 0.0003
vn 0.0005 1.0000 -0.0010
vn 0.0000 1.0000 -0.0000
vn -0.0007 1.0000 -0.0005
vn -0.0010 1.0000 -0.0007
vn -0.0011 1.0000 0.0029
vn -0.0016 1.0000 0.0043
vn -0.0406 0.5520 -0.8329
vn -0.0428 -0.8325 0.5524
vn 0.1928 -0.7812 0.5938
vn 0.3157 -0.8067 0.4995
vn 0.3682 -0.6380 0.6763
vn 0.5822 -0.4418 0.6825
vn 0.3492 -0.1991 0.9156
vn 0.0082 -0.1371 0.9905
vn -0.2937 -0.0831 0.9523
vn -0.2875 -0.0886 0.9537
vn -0.2862 -0.0897 0.9540
vn -0.2857 -0.0902 0.9541
vn 0.1045 0.6115 -0.7843
vn 0.0398 0.2767 -0.9601
vn 0.2901 0.4651 -0.8364
vn 0.2178 0.3197 -0.9221
vn -0.0042 0.2234 -0.9747
vn -0.2423 0.2358 -0.9411
vn -0.3421 0.4003 -0.8501
vn -0.2411 0.5861 -0.7735
vn -0.2482 0.6006 -0.7601
vn 0.1720 0.7665 -0.6188
vn 0.2482 0.7762 -0.5795
vn 0.4296 0.6521 -0.6246
vn 0.4243 0.4780 -0.7691
vn 0.5300 0.3704 -0.7628
vn 0.4748 0.1448 -0.8681
vn 0.4751 0.1436 -0.8681
vn 0.4763 0.1382 -0.8684
vn 0.0067 -0.0095 -0.9999
vn -0.0823 0.8309 -0.5504
vn 0.4778 0.1311 -0.8686
vn -0.0882 -0.1024 -0.9908
vn -0.3621 -0.0250 -0.9318
vn -0.3802 -0.0326 -0.9243
vn -0.4881 0.6939 -0.5295
vn -0.4872 0.6906 -0.5345
vn -0.4879 0.6934 -0.5302
vn -0.4871 0.6903 -0.5350
vn -0.1613 0.8905 -0.4254
vn 0.3118 0.8744 -0.3718
vn 0.5727 0.6377 -0.5151
vn 0.7231 0.4037 -0.5605
vn 0.3321 -0.1084 -0.9370
vn -0.6098 0.0964 -0.7867
vn -0.6183 0.2905 -0.7303
vn -0.6570 0.3252 -0.6802
vn -0.1539 0.9312 -0.3306
vn -0.0301 0.9758 -0.2167
vn 0.4589 0.8512 -0.2546
vn 0.5716 0.7660 -0.2941
vn 0.7344 0.3951 -0.5519
vn -0.0576 -0.4099 -0.9103
vn -0.6081 0.7248 -0.3238
vn -0.5903 0.7554 -0.2843
vn -0.3887 0.9021 -0.1872
vn 0.8445 0.1415 -0.5165
vn 0.7193 -0.0639 -0.6918
vn 0.7058 -0.2355 -0.6681
vn 0.3728 -0.3238 -0.8696
vn 0.3165 -0.4115 -0.8547
vn -0.1215 -0.4748 -0.8717
vn -0.4641 -0.3506 -0.8134
vn -0.7363 -0.0461 -0.6751
vn -0.8513 0.2583 -0.4567
vn -0.8673 0.2637 -0.4222
vn -0.7991 0.5371 -0.2703
vn -0.0186 0.9934 -0.1134
vn 0.3301 0.9370 0.1142
vn 0.4206 0.9067 0.0312
vn 0.7460 0.6497 -0.1460
vn 0.8524 0.4953 -0.1675
vn -0.5716 -0.4093 -0.7111
vn -0.7443 -0.2853 -0.6038
vn -0.5783 0.8094 0.1016
vn -0.3942 0.9181 0.0421
vn -0.1930 0.9717 0.1360
vn 0.2847 0.9235 0.2570
vn 0.6886 0.7176 0.1041
vn 0.8909 0.4380 -0.1206
vn 0.9748 0.1643 -0.1509
vn 0.9205 0.0876 -0.3808
vn 0.8885 -0.2673 -0.3731
vn 0.7604 -0.3596 -0.5408
vn 0.7069 -0.4895 -0.5105
vn 0.3354 -0.6390 -0.6922
vn 0.3353 -0.6389 -0.6924
vn 0.3350 -0.6387 -0.6927
vn 0.3351 -0.6388 -0.6925
vn -0.0947 -0.7084 -0.6994
vn -0.1168 -0.6938 -0.7106
vn -0.3245 -0.6962 -0.6403
vn -0.5263 -0.5363 -0.6598
vn -0.7832 -0.2984 -0.5454
vn -0.9600 -0.0869 -0.2662
vn -0.9295 0.1749 -0.3248
vn -0.5938 0.7949 0.1246
vn -0.1770 0.9689 0.1729
vn 0.0610 0.9499 0.3065
vn 0.7248 0.6528 0.2203
vn 0.8592 0.4713 0.1990
vn -0.9718 0.2316 0.0445
vn -0.8882 0.4390 0.1357
vn -0.8719 0.4782 0.1056
vn 0.3763 0.8209 0.4296
vn 0.6068 0.6759 0.4183
vn 0.9937 0.0956 -0.0590
vn 0.9416 -0.3268 -0.0809
vn 0.6758 -0.6419 -0.3622
vn 0.4849 -0.7998 -0.3539
vn 0.3490 -0.8116 -0.4685
vn 0.2323 -0.8679 -0.4390
vn -0.0169 -0.8607 -0.5088
vn -0.4550 -0.8060 -0.3786
vn -0.5707 -0.7273 -0.3812
vn -0.8198 -0.4741 -0.3212
vn -0.9709 -0.2214 -0.0916
vn -0.9772 -0.1813 -0.1101
vn -0.9895 0.1186 0.0824
vn -0.5787 0.6231 0.5261
vn -0.5342 0.7091 0.4602
vn -0.2247 0.8537 0.4699
vn -0.1107 0.8294 0.5476
vn 0.2993 0.7407 0.6015
vn 0.8899 0.3498 0.2926
vn 0.9640 0.1027 0.2455
vn -0.7398 -0.6276 -0.2425
vn -0.8594 0.4232 0.2869
vn 0.3526 0.6306 0.6914
vn 0.5260 0.5021 0.6864
vn 0.6058 0.5083 0.6121
vn 0.7683 0.3301 0.5483
vn 0.9524 0.0367 0.3026
vn 0.9198 -0.3262 0.2183
vn 0.9122 -0.4095 0.0107
vn 0.8039 -0.5943 -0.0220
vn 0.0861 -0.9766 -0.1968
vn -0.1226 -0.9449 -0.3035
vn -0.3104 -0.9228 -0.2284
vn -0.7511 -0.6592 -0.0352
vn -0.8966 -0.4260 0.1210
vn -0.9319 -0.3470 0.1057
vn -0.0513 0.7582 0.6501
vn 0.7765 0.1809 0.6036
vn 0.8588 0.0253 0.5118
vn 0.7050 -0.7057 0.0699
vn 0.4665 -0.8833 -0.0472
vn -0.3445 -0.9372 -0.0548
vn -0.6916 -0.7213 0.0381
vn -0.9172 -0.1208 0.3797
vn -0.9252 -0.0457 0.3768
vn -0.8416 0.1579 0.5165
vn -0.8149 0.1592 0.5573
vn -0.5919 0.3638 0.7192
vn -0.5359 0.4940 0.6846
vn -0.2153 0.5268 0.8222
vn -0.0848 0.6164 0.7828
vn 0.1065 0.5218 0.8464
vn 0.3196 -0.9465 0.0456
vn 0.1431 -0.9882 -0.0553
vn -0.1100 -0.9843 0.1377
vn -0.3031 -0.9519 0.0462
vn 0.1550 0.3344 0.9296
vn 0.4486 0.2291 0.8639
vn 0.4477 0.2289 0.8644
vn 0.4484 0.2291 0.8640
vn 0.4570 0.2310 0.8590
vn 0.6053 0.1024 0.7894
vn 0.7748 -0.1707 0.6087
vn 0.7608 -0.4113 0.5020
vn 0.6240 -0.7071 0.3325
vn -0.4130 -0.8575 0.3069
vn -0.6349 -0.7267 0.2625
vn -0.7094 -0.5511 0.4393
vn -0.6929 -0.5673 0.4450
vn -0.8247 -0.2342 0.5148
vn -0.6595 -0.1073 0.7440
vn -0.6657 -0.0347 0.7454
vn -0.5368 0.1579 0.8288
vn 0.6123 -0.1216 0.7812
vn 0.7038 -0.4784 0.5251
vn 0.3583 -0.8487 0.3890
vn 0.2978 -0.9098 0.2889
vn -0.0467 -0.9456 0.3220
vn -0.3220 0.1086 0.9405
vn -0.1834 0.2365 0.9542
vn 0.0396 0.1987 0.9793
vn 0.1063 0.0449 0.9933
vn 0.2783 0.0109 0.9604
vn 0.5283 -0.2161 0.8211
vn 0.5306 -0.4782 0.6999
vn -0.1185 -0.8900 0.4402
vn -0.3077 -0.8360 0.4544
vn -0.3412 -0.7677 0.5424
vn -0.5161 -0.5946 0.6166
vn -0.5465 -0.5729 0.6109
vn -0.4996 -0.3347 0.7990
vn -0.5351 -0.2372 0.8108
usemtl None.012
s 1
f 1//1 2//1 3//1
f 3//2 2//2 4//2
f 5//3 6//3 3//3
f 5//4 3//4 4//4
f 6//5 5//5 7//5
f 6//6 7//6 8//6
f 8//7 7//7 9//7
f 9//8 7//8 10//8
f 9//9 10//9 11//9
f 11//10 10//10 12//10
f 11//11 12//11 13//11
f 13//12 12//12 14//12
f 14//13 15//13 13//13
f 16//14 15//14 14//14
f 15//15 16//15 17//15
f 18//16 17//16 19//16
f 19//17 17//17 16//17
f 2//18 18//18 19//18
f 1//19 18//19 2//19
f 20//20 5//20 4//20
f 20//21 4//22 2//23
f 20//21 2//23 21//24
f 22//25 7//25 5//25
f 10//26 7//26 23//26
f 23//27 7//27 22//27
f 23//28 12//28 10//28
f 24//29 16//29 14//29
f 24//30 14//31 25//32
f 25//32 14//31 12//33
f 21//34 16//34 24//34
f 21//35 2//35 19//35
f 21//36 19//36 16//36
f 26//37 27//37 28//37
f 27//38 26//38 29//38
f 29//39 26//39 30//39
f 29//40 30//40 31//40
f 29//41 31//41 23//41
f 23//42 31//42 25//42
f 23//43 25//43 12//43
f 28//44 27//44 32//44
f 32//45 27//45 33//45
f 32//46 33//46 34//46
f 34//47 33//47 35//47
f 35//48 33//48 36//48
f 35//49 36//49 37//49
f 37//50 36//50 38//50
f 38//51 36//51 39//51
f 38//52 39//52 40//52
f 40//53 39//54 41//55
f 40//53 41//55 42//56
f 42//57 41//57 43//57
f 43//58 41//59 44//60
f 43//58 44//60 45//61
f 45//62 44//62 46//62
f 46//63 44//63 47//63
f 47//64 44//64 48//64
f 47//65 48//65 49//65
f 49//66 48//66 22//66
f 49//67 22//67 20//67
f 20//68 22//68 5//68
f 50//69 51//69 52//69
f 50//69 53//69 54//69
f 55//69 53//69 50//69
f 52//69 55//69 50//69
f 51//70 56//70 52//70
f 52//71 56//71 57//71
f 52//72 57//72 55//72
f 55//73 57//73 58//73
f 55//74 58//74 53//74
f 53//75 58//75 59//75
f 53//76 59//76 54//76
f 54//77 59//77 50//77
f 50//78 59//78 60//78
f 50//79 60//79 51//79
f 51//80 60//80 56//80
f 58//69 61//69 62//69
f 58//69 62//69 59//69
f 59//69 62//69 63//69
f 59//69 63//69 64//69
f 59//69 64//69 65//69
f 59//69 65//69 66//69
f 59//69 66//69 60//69
f 60//69 66//69 67//69
f 57//69 68//69 69//81
f 57//69 69//81 70//69
f 57//69 70//69 71//82
f 57//69 71//82 58//69
f 58//69 71//82 72//69
f 58//69 72//69 61//69
f 60//69 67//69 73//69
f 60//69 73//69 74//69
f 60//69 74//69 56//69
f 56//69 74//69 75//69
f 56//69 75//69 76//69
f 56//69 76//69 77//69
f 56//69 77//69 57//69
f 57//69 77//69 68//69
f 26//83 28//83 61//83
f 61//84 28//84 62//84
f 62//85 28//85 32//85
f 62//86 32//86 63//86
f 63//87 32//87 34//87
f 63//88 34//88 64//88
f 64//89 34//89 35//89
f 64//90 35//90 65//90
f 65//91 35//91 37//91
f 65//92 37//92 66//92
f 66//93 37//93 38//93
f 66//94 38//94 67//94
f 67//95 38//95 40//95
f 67//96 40//96 42//96
f 67//97 42//97 73//97
f 73//98 42//98 43//98
f 73//99 43//99 74//99
f 74//100 43//100 45//100
f 74//101 45//101 46//101
f 74//102 46//102 75//102
f 75//103 46//103 47//103
f 75//104 47//104 76//104
f 76//105 47//105 49//105
f 76//106 49//106 77//106
f 77//107 49//107 20//107
f 77//108 20//108 68//108
f 68//109 20//109 21//109
f 68//110 21//110 69//110
f 69//111 21//111 24//111
f 69//112 24//112 70//112
f 70//113 24//113 25//113
f 70//114 25//114 71//114
f 71//115 25//115 31//115
f 71//116 31//117 30//118
f 71//116 30//118 72//119
f 72//120 30//120 26//120
f 72//121 26//121 61//121
f 22//122 33//123 27//124
f 36//125 33//123 22//122
f 41//125 39//125 22//122
f 22//122 39//125 36//125
f 22//122 44//126 41//125
f 22//122 48//127 44//126
f 29//128 23//129 22//122
f 27//124 29//128 22//122
f 78//130 79//130 80//130
f 17//131 18//131 81//131
f 81//132 15//132 17//132
f 15//133 81//133 82//133
f 15//134 82//134 13//134
f 13//135 82//135 11//135
f 11//136 83//136 9//136
f 9//137 84//137 8//137
f 85//138 6//139 84//140
f 84//140 6//139 8//141
f 79//142 86//142 80//142
f 80//143 87//143 78//143
f 86//144 88//144 80//144
f 80//145 88//145 87//145
f 78//146 87//146 89//146
f 78//147 89//147 90//147
f 78//148 90//148 91//148
f 78//149 91//149 79//149
f 79//150 91//150 92//150
f 79//151 93//151 86//151
f 86//152 93//152 94//152
f 86//153 94//153 95//153
f 86//154 95//154 88//154
f 88//155 95//155 96//155
f 88//156 96//157 87//158
f 87//159 97//159 89//159
f 92//160 93//160 79//160
f 96//157 98//161 87//158
f 89//162 97//162 99//162
f 89//163 99//163 90//163
f 90//164 99//164 100//164
f 91//165 101//166 92//167
f 92//167 101//166 102//168
f 92//169 102//169 93//169
f 93//170 103//170 94//170
f 94//171 104//171 95//171
f 95//172 104//172 96//172
f 87//173 98//173 97//173
f 100//174 105//174 90//174
f 90//175 105//175 91//175
f 91//176 105//176 101//176
f 102//177 106//177 93//177
f 93//178 106//178 103//178
f 103//179 107//179 94//179
f 94//180 107//180 104//180
f 104//181 108//181 96//181
f 97//182 109//182 99//182
f 101//183 110//183 102//183
f 102//184 110//184 111//184
f 102//185 111//185 106//185
f 96//186 108//186 112//186
f 96//187 112//187 98//187
f 98//188 112//188 113//188
f 98//189 113//189 97//189
f 97//190 113//190 109//190
f 109//191 114//191 99//191
f 99//192 114//192 100//192
f 100//193 115//193 105//193
f 105//194 115//194 101//194
f 101//195 115//195 116//195
f 101//196 116//196 110//196
f 106//197 117//197 103//197
f 117//198 118//198 103//198
f 103//199 118//199 107//199
f 107//200 119//200 104//200
f 104//201 119//201 108//201
f 114//202 120//202 100//202
f 100//203 120//203 115//203
f 111//204 110//204 121//204
f 111//205 121//205 106//205
f 106//206 121//206 117//206
f 117//207 122//207 118//207
f 107//208 118//208 119//208
f 119//209 123//209 108//209
f 108//210 123//210 124//210
f 108//211 124//211 112//211
f 112//212 124//212 125//212
f 112//213 125//213 113//213
f 113//214 125//214 126//214
f 113//215 126//216 127//217
f 113//215 127//217 109//218
f 109//219 127//219 128//219
f 109//220 128//220 114//220
f 114//221 128//221 129//221
f 114//222 129//222 120//222
f 120//223 130//223 115//223
f 115//224 130//224 131//224
f 115//225 131//225 116//225
f 110//226 132//226 121//226
f 121//227 133//227 117//227
f 117//228 133//228 122//228
f 118//229 134//229 119//229
f 119//230 134//230 123//230
f 131//231 135//231 116//231
f 116//232 135//232 132//232
f 116//233 132//233 110//233
f 122//234 136//234 118//234
f 118//235 136//235 134//235
f 123//236 137//236 124//236
f 124//237 137//237 125//237
f 125//238 138//238 126//238
f 126//239 138//239 139//239
f 126//240 139//240 127//240
f 127//241 139//241 140//241
f 127//242 140//242 128//242
f 129//243 128//243 141//243
f 129//244 141//244 120//244
f 120//245 142//245 130//245
f 130//246 142//246 143//246
f 130//247 143//247 131//247
f 131//248 143//248 135//248
f 132//249 144//249 145//249
f 132//250 145//250 121//250
f 121//251 145//251 133//251
f 133//252 145//252 122//252
f 122//253 146//253 136//253
f 134//254 147//254 123//254
f 123//255 147//255 137//255
f 120//256 141//256 142//256
f 135//257 144//257 132//257
f 146//258 148//258 136//258
f 136//259 148//259 149//259
f 136//260 149//260 134//260
f 134//261 149//261 147//261
f 147//262 150//262 137//262
f 137//263 150//263 151//263
f 137//264 151//264 125//264
f 125//265 151//265 138//265
f 140//266 139//266 152//266
f 140//267 152//267 128//267
f 128//268 152//268 141//268
f 141//269 153//269 142//269
f 142//270 153//270 154//270
f 142//271 154//271 143//271
f 145//272 146//272 122//272
f 147//273 149//273 155//273
f 147//274 155//274 150//274
f 151//275 156//275 138//275
f 138//276 156//276 139//276
f 152//277 157//277 141//277
f 141//278 157//278 153//278
f 143//279 154//279 158//279
f 143//280 158//280 135//280
f 135//281 158//281 144//281
f 144//282 158//282 159//282
f 144//283 159//283 160//283
f 144//284 160//284 145//284
f 145//285 160//285 161//285
f 145//286 161//286 146//286
f 146//287 161//287 148//287
f 139//288 156//288 162//288
f 139//289 162//289 152//289
f 152//290 162//290 163//290
f 152//291 163//291 157//291
f 148//292 161//292 164//292
f 148//293 164//294 83//295
f 148//293 83//295 149//296
f 149//297 83//297 155//297
f 155//298 165//298 150//298
f 150//299 165//299 151//299
f 151//300 82//300 156//300
f 157//301 163//301 166//301
f 157//302 166//302 153//302
f 153//303 166//303 167//303
f 153//304 167//304 154//304
f 154//305 167//305 158//305
f 158//306 167//306 85//306
f 158//307 85//307 159//307
f 159//308 85//308 160//308
f 155//309 83//309 165//309
f 165//310 82//310 151//310
f 156//311 82//311 81//311
f 156//312 81//312 162//312
f 162//313 81//313 163//313
f 85//314 84//314 160//314
f 160//315 84//315 161//315
f 161//316 84//316 164//316
f 164//317 84//317 9//317
f 164//318 9//318 83//318
f 165//319 83//319 11//319
f 165//320 11//320 82//320
f 81//321 18//321 163//321
f 163//322 18//322 166//322
f 166//323 18//323 1//323
f 166//324 1//324 3//324
f 166//325 3//325 167//325
f 167//326 3//326 6//326
f 167//327 6//327 85//327
